<svg width="82" height="28" viewBox="0 0 82 28" fill="none" xmlns="http://www.w3.org/2000/svg">
<path d="M37.9 21H32.42V6.7H37.86C41.82 6.7 44.22 9.26 44.22 13.86C44.22 18.46 41.86 21 37.9 21ZM34.62 19.1H37.76C41.08 19.1 41.94 16.62 41.94 13.86C41.94 11.1 41.08 8.6 37.76 8.6H34.62V19.1ZM47.6477 8.98H45.4277V6.86H47.6477V8.98ZM47.5077 21H45.5477V10.8H47.5077V21ZM53.3278 21.28C50.2278 21.28 48.6878 19.68 48.6278 17.6H50.6078C50.6878 18.78 51.4078 19.7 53.3078 19.7C55.0278 19.7 55.4878 18.94 55.4878 18.2C55.4878 16.92 54.1278 16.78 52.8078 16.5C51.0278 16.08 48.9878 15.56 48.9878 13.44C48.9878 11.68 50.4078 10.5 52.8678 10.5C55.6678 10.5 57.0078 12 57.1478 13.76H55.1678C55.0278 12.98 54.6078 12.08 52.9078 12.08C51.5878 12.08 51.0278 12.6 51.0278 13.36C51.0278 14.42 52.1678 14.52 53.6078 14.84C55.4878 15.28 57.5278 15.82 57.5278 18.1C57.5278 20.08 56.0078 21.28 53.3278 21.28ZM63.2334 21.3C60.0534 21.3 58.1334 19.1 58.1334 15.9C58.1334 12.72 60.0534 10.48 63.2534 10.48C66.4134 10.48 68.3334 12.7 68.3334 15.88C68.3334 19.08 66.4134 21.3 63.2334 21.3ZM63.2534 19.68C65.3334 19.68 66.2934 18.02 66.2934 15.9C66.2934 13.76 65.3334 12.12 63.2534 12.12C61.1334 12.12 60.1734 13.76 60.1734 15.9C60.1734 18.02 61.1334 19.68 63.2534 19.68ZM74.3416 10.56C74.7016 10.56 74.9816 10.58 75.2816 10.62V12.5C75.0416 12.46 74.8616 12.44 74.6216 12.44C72.8416 12.44 71.5616 13.78 71.5616 15.72V21H69.6016V10.8H71.5616V12.74H71.6016C72.1416 11.46 72.9616 10.56 74.3416 10.56ZM79.9147 19.5C80.2547 19.5 80.4147 19.48 80.7547 19.42V21C80.2547 21.1 79.9347 21.12 79.5147 21.12C77.8347 21.12 76.8147 20.48 76.8147 18.12V12.42H75.3347V10.8H76.8147V7.52H78.7747V10.8H80.7347V12.42H78.7747V18.18C78.7747 19.26 79.0747 19.5 79.9147 19.5Z" fill="#201E1D"/>
<g clip-path="url(#clip0_518_79)">
<path d="M2.54176 9.07042C1.43346 5.09445 5.09446 1.43345 9.07043 2.54176L12.3758 3.46314C13.3069 3.72266 14.2911 3.72267 15.2222 3.46314L18.5276 2.54175C22.5035 1.43345 26.1645 5.09445 25.0562 9.07042L24.1348 12.3758C23.8753 13.3068 23.8753 14.2911 24.1348 15.2221L25.0562 18.5275C26.1645 22.5035 22.5035 26.1645 18.5276 25.0562L15.2222 24.1348C14.2911 23.8753 13.3069 23.8753 12.3758 24.1348L9.07042 25.0562C5.09446 26.1645 1.43346 22.5035 2.54176 18.5275L3.46315 15.2221C3.72267 14.2911 3.72267 13.3068 3.46315 12.3758L2.54176 9.07042Z" fill="#201E1D"/>
<path d="M11.8281 14.2624L9.47798 13.0371L7 12.9642L11.4689 14.4687L11.8281 14.2624Z" fill="white"/>
<path d="M14.3597 9.49073L13.9998 7L13.317 11.7301L13.5794 12.0536L14.3597 9.49073Z" fill="white"/>
<path d="M16.0256 13.4211L18.6467 13.7566L21 12.9642L16.2938 13.1025L16.0256 13.4211Z" fill="white"/>
<path d="M18.569 8.68841L15.0511 11.8664L15.0476 12.2853L17.2676 10.8315L18.569 8.68841Z" fill="white"/>
<path d="M12.3079 12.8344L11.2832 10.3617L9.43102 8.68841L11.902 12.758L12.3079 12.8344Z" fill="white"/>
<path d="M15.1241 16.1049L15.2542 18.7841L16.4312 21L15.4795 16.3175L15.1241 16.1049Z" fill="white"/>
<path d="M12.3647 15.6696L9.78864 16.2647L7.8444 17.8265L12.22 16.062L12.3647 15.6696Z" fill="white"/>
<path d="M16.0558 14.9298L17.8515 16.8972L20.1556 17.8265L16.4629 14.8605L16.0558 14.9298Z" fill="white"/>
<path d="M12.0699 18.5344L11.5688 21L13.8041 16.7922L13.6663 16.3971L12.0699 18.5344Z" fill="white"/>
<path d="M17.5259 14.1477L15.0039 13.8252L16.6546 11.8623L14.5183 13.2613L14.5402 10.68L13.7895 13.1463L12.1724 11.1547L13.1583 13.5336L10.6587 13.0635L12.9203 14.2425L10.7079 15.5139L13.1865 14.941L12.2964 17.3589L13.8326 15.3022L14.6815 17.7353L14.5561 15.1572L16.7466 16.4671L15.0188 14.574L17.5259 14.1477Z" fill="white"/>
</g>
<defs>
<clipPath id="clip0_518_79">
<rect width="28" height="28" fill="white"/>
</clipPath>
</defs>
</svg>
