<svg width="176" height="60" viewBox="0 0 176 60" fill="none" xmlns="http://www.w3.org/2000/svg">
<path d="M81.2154 45.2856H69.4725V14.6428H81.1297C89.6154 14.6428 94.7583 20.1285 94.7583 29.9856C94.7583 39.8428 89.7011 45.2856 81.2154 45.2856ZM74.1868 41.2142H80.9154C88.0297 41.2142 89.8725 35.8999 89.8725 29.9856C89.8725 24.0714 88.0297 18.7142 80.9154 18.7142H74.1868V41.2142ZM102.103 19.5285H97.3461V14.9856H102.103V19.5285ZM101.803 45.2856H97.6032V23.4285H101.803V45.2856ZM114.275 45.8856C107.632 45.8856 104.332 42.4571 104.204 37.9999H108.446C108.618 40.5285 110.161 42.4999 114.232 42.4999C117.918 42.4999 118.904 40.8714 118.904 39.2856C118.904 36.5428 115.989 36.2428 113.161 35.6428C109.346 34.7428 104.975 33.6285 104.975 29.0856C104.975 25.3142 108.018 22.7856 113.289 22.7856C119.289 22.7856 122.161 25.9999 122.461 29.7714H118.218C117.918 28.0999 117.018 26.1714 113.375 26.1714C110.546 26.1714 109.346 27.2856 109.346 28.9142C109.346 31.1856 111.789 31.3999 114.875 32.0856C118.904 33.0285 123.275 34.1856 123.275 39.0714C123.275 43.3142 120.018 45.8856 114.275 45.8856ZM135.501 45.9285C128.687 45.9285 124.573 41.2142 124.573 34.3571C124.573 27.5428 128.687 22.7428 135.544 22.7428C142.316 22.7428 146.43 27.4999 146.43 34.3142C146.43 41.1714 142.316 45.9285 135.501 45.9285ZM135.544 42.4571C140.001 42.4571 142.058 38.8999 142.058 34.3571C142.058 29.7714 140.001 26.2571 135.544 26.2571C131.001 26.2571 128.944 29.7714 128.944 34.3571C128.944 38.8999 131.001 42.4571 135.544 42.4571ZM159.304 22.9142C160.076 22.9142 160.676 22.9571 161.319 23.0428V27.0714C160.804 26.9856 160.419 26.9428 159.904 26.9428C156.09 26.9428 153.347 29.8142 153.347 33.9714V45.2856H149.147V23.4285H153.347V27.5856H153.433C154.59 24.8428 156.347 22.9142 159.304 22.9142ZM171.247 42.0714C171.975 42.0714 172.318 42.0285 173.047 41.8999V45.2856C171.975 45.4999 171.29 45.5428 170.39 45.5428C166.79 45.5428 164.604 44.1714 164.604 39.1142V26.8999H161.433V23.4285H164.604V16.3999H168.804V23.4285H173.004V26.8999H168.804V39.2428C168.804 41.5571 169.447 42.0714 171.247 42.0714Z" fill="#201E1D"/>
<g clip-path="url(#clip0_527_35124)">
<path d="M5.44831 19.4367C3.07337 10.9168 10.9184 3.07177 19.4383 5.44671L26.5213 7.4211C28.5164 7.97723 30.6255 7.97723 32.6206 7.42111L39.7036 5.44671C48.2235 3.07177 56.0685 10.9168 53.6936 19.4367L51.7192 26.5197C51.163 28.5148 51.163 30.6239 51.7192 32.619L53.6936 39.702C56.0685 48.2219 48.2235 56.0669 39.7036 53.692L32.6206 51.7176C30.6255 51.1614 28.5164 51.1614 26.5213 51.7176L19.4383 53.692C10.9184 56.0669 3.07338 48.2219 5.44831 39.702L7.42271 32.619C7.97883 30.6239 7.97883 28.5148 7.42271 26.5197L5.44831 19.4367Z" fill="#201E1D"/>
<path d="M25.3459 30.5629L20.31 27.937L15 27.781L24.5762 31.0048L25.3459 30.5629Z" fill="white"/>
<path d="M30.7708 20.3378L29.9997 15.0005L28.5364 25.1365L29.0987 25.8297L30.7708 20.3378Z" fill="white"/>
<path d="M34.3406 28.7601L39.9573 29.4788L45 27.781L34.9152 28.0772L34.3406 28.7601Z" fill="white"/>
<path d="M39.7907 18.6185L32.2524 25.4286L32.245 26.3262L37.0021 23.2108L39.7907 18.6185Z" fill="white"/>
<path d="M26.374 27.5027L24.1784 22.2041L20.2093 18.6185L25.5043 27.3391L26.374 27.5027Z" fill="white"/>
<path d="M32.4088 34.511L32.6876 40.2522L35.2097 45.0005L33.1704 34.9667L32.4088 34.511Z" fill="white"/>
<path d="M26.4957 33.5781L20.9757 34.8534L16.8094 38.2001L26.1857 34.4191L26.4957 33.5781Z" fill="white"/>
<path d="M34.4053 31.9928L38.2532 36.2088L43.1906 38.2001L35.2777 31.8444L34.4053 31.9928Z" fill="white"/>
<path d="M25.864 39.717L24.7903 45.0005L29.5801 35.9837L29.285 35.1372L25.864 39.717Z" fill="white"/>
<path d="M37.5556 30.3171L32.1511 29.6259L35.6884 25.4196L31.1107 28.4176L31.1577 22.8863L29.5488 28.1711L26.0837 23.9033L28.1964 29.0011L22.8402 27.9936L27.6864 30.5201L22.9456 33.2446L28.2569 32.017L26.3495 37.1982L29.6413 32.791L31.4603 38.0047L31.1917 32.4803L35.8856 35.287L32.1831 31.2306L37.5556 30.3171Z" fill="white"/>
</g>
<defs>
<clipPath id="clip0_527_35124">
<rect width="60" height="60" fill="white"/>
</clipPath>
</defs>
</svg>
