<svg width="1238" height="92" viewBox="0 0 1238 92" fill="none" xmlns="http://www.w3.org/2000/svg">
<mask id="mask0_527_34234" style="mask-type:alpha" maskUnits="userSpaceOnUse" x="0" y="0" width="1238" height="92">
<rect width="1238" height="92" fill="#F6F5F4"/>
</mask>
<g mask="url(#mask0_527_34234)">
<path d="M-0.0078125 -357.927L-116.156 75.5446" stroke="#E3E0DD"/>
<path d="M5.78516 -356.374L-110.363 77.0976" stroke="#E3E0DD"/>
<path d="M11.582 -354.821L-104.566 78.6506" stroke="#E3E0DD"/>
<path d="M17.3789 -353.268L-98.7693 80.2033" stroke="#E3E0DD"/>
<path d="M23.1719 -351.715L-92.9764 81.7564" stroke="#E3E0DD"/>
<path d="M28.9688 -350.162L-87.1795 83.3091" stroke="#E3E0DD"/>
<path d="M34.7656 -348.609L-81.3826 84.8621" stroke="#E3E0DD"/>
<path d="M40.5586 -347.056L-75.5896 86.4151" stroke="#E3E0DD"/>
<path d="M46.3555 -345.503L-69.7928 87.9678" stroke="#E3E0DD"/>
<path d="M52.1523 -343.95L-63.9959 89.5208" stroke="#E3E0DD"/>
<path d="M57.9453 -342.397L-58.2029 91.0738" stroke="#E3E0DD"/>
<path d="M63.7422 -340.844L-52.4061 92.6267" stroke="#E3E0DD"/>
<path d="M69.5391 -339.292L-46.6092 94.1795" stroke="#E3E0DD"/>
<path d="M75.332 -337.739L-40.8162 95.7326" stroke="#E3E0DD"/>
<path d="M81.1289 -336.186L-35.0193 97.2853" stroke="#E3E0DD"/>
<path d="M86.9258 -334.633L-29.2225 98.8383" stroke="#E3E0DD"/>
<path d="M92.7188 -333.08L-23.4295 100.391" stroke="#E3E0DD"/>
<path d="M98.5156 -331.527L-17.6326 101.944" stroke="#E3E0DD"/>
<path d="M104.312 -329.974L-11.8357 103.497" stroke="#E3E0DD"/>
<path d="M110.105 -328.421L-6.04277 105.05" stroke="#E3E0DD"/>
<path d="M115.902 -326.868L-0.245898 106.603" stroke="#E3E0DD"/>
<path d="M121.699 -325.315L5.55098 108.156" stroke="#E3E0DD"/>
<path d="M127.492 -323.762L11.3439 109.709" stroke="#E3E0DD"/>
<path d="M133.289 -322.209L17.1408 111.262" stroke="#E3E0DD"/>
<path d="M139.086 -320.656L22.9377 112.815" stroke="#E3E0DD"/>
<path d="M144.879 -319.104L28.7307 114.368" stroke="#E3E0DD"/>
<path d="M150.676 -317.551L34.5275 115.92" stroke="#E3E0DD"/>
<path d="M156.473 -315.998L40.3244 117.473" stroke="#E3E0DD"/>
<path d="M162.266 -314.445L46.1174 119.026" stroke="#E3E0DD"/>
<path d="M168.062 -312.892L51.9143 120.579" stroke="#E3E0DD"/>
<path d="M173.859 -311.339L57.7111 122.132" stroke="#E3E0DD"/>
<path d="M179.652 -309.786L63.5041 123.685" stroke="#E3E0DD"/>
<path d="M185.449 -308.233L69.301 125.238" stroke="#E3E0DD"/>
<path d="M191.246 -306.68L75.0979 126.791" stroke="#E3E0DD"/>
<path d="M197.039 -305.127L80.8908 128.344" stroke="#E3E0DD"/>
<path d="M202.836 -303.574L86.6877 129.897" stroke="#E3E0DD"/>
<path d="M208.633 -302.021L92.4846 131.45" stroke="#E3E0DD"/>
<path d="M214.426 -300.469L98.2775 133.002" stroke="#E3E0DD"/>
<path d="M220.223 -298.916L104.074 134.555" stroke="#E3E0DD"/>
<path d="M226.02 -297.363L109.871 136.108" stroke="#E3E0DD"/>
<path d="M231.812 -295.81L115.664 137.661" stroke="#E3E0DD"/>
<path d="M237.609 -294.257L121.461 139.214" stroke="#E3E0DD"/>
<path d="M243.406 -292.704L127.258 140.767" stroke="#E3E0DD"/>
<path d="M249.199 -291.151L133.051 142.32" stroke="#E3E0DD"/>
<path d="M254.996 -289.598L138.848 143.873" stroke="#E3E0DD"/>
<path d="M260.793 -288.045L144.645 145.426" stroke="#E3E0DD"/>
<path d="M266.586 -286.493L150.438 146.979" stroke="#E3E0DD"/>
<path d="M272.383 -284.939L156.235 148.532" stroke="#E3E0DD"/>
<path d="M278.18 -283.387L162.031 150.084" stroke="#E3E0DD"/>
<path d="M283.973 -281.834L167.824 151.637" stroke="#E3E0DD"/>
<path d="M289.77 -280.281L173.621 153.19" stroke="#E3E0DD"/>
<path d="M295.566 -278.728L179.418 154.743" stroke="#E3E0DD"/>
<path d="M301.359 -277.175L185.211 156.296" stroke="#E3E0DD"/>
<path d="M307.156 -275.622L191.008 157.849" stroke="#E3E0DD"/>
<path d="M312.953 -274.069L196.805 159.402" stroke="#E3E0DD"/>
<path d="M318.746 -272.516L202.598 160.955" stroke="#E3E0DD"/>
<path d="M324.543 -270.963L208.395 162.508" stroke="#E3E0DD"/>
<path d="M330.34 -269.41L214.192 164.061" stroke="#E3E0DD"/>
<path d="M336.133 -267.857L219.985 165.614" stroke="#E3E0DD"/>
<path d="M341.93 -266.304L225.781 167.167" stroke="#E3E0DD"/>
<path d="M347.727 -264.752L231.578 168.719" stroke="#E3E0DD"/>
<path d="M353.52 -263.199L237.371 170.273" stroke="#E3E0DD"/>
<path d="M359.316 -261.646L243.168 171.825" stroke="#E3E0DD"/>
<path d="M365.113 -260.093L248.965 173.378" stroke="#E3E0DD"/>
<path d="M370.906 -258.54L254.758 174.931" stroke="#E3E0DD"/>
<path d="M376.703 -256.987L260.555 176.484" stroke="#E3E0DD"/>
<path d="M382.5 -255.434L266.352 178.037" stroke="#E3E0DD"/>
<path d="M388.293 -253.881L272.145 179.59" stroke="#E3E0DD"/>
<path d="M394.09 -252.328L277.942 181.143" stroke="#E3E0DD"/>
<path d="M399.887 -250.776L283.738 182.696" stroke="#E3E0DD"/>
<path d="M405.68 -249.222L289.531 184.249" stroke="#E3E0DD"/>
<path d="M411.477 -247.67L295.328 185.801" stroke="#E3E0DD"/>
<path d="M417.27 -246.117L301.121 187.355" stroke="#E3E0DD"/>
<path d="M423.066 -244.564L306.918 188.907" stroke="#E3E0DD"/>
<path d="M428.863 -243.011L312.715 190.46" stroke="#E3E0DD"/>
<path d="M434.656 -241.458L318.508 192.013" stroke="#E3E0DD"/>
<path d="M440.453 -239.905L324.305 193.566" stroke="#E3E0DD"/>
<path d="M446.25 -238.352L330.102 195.119" stroke="#E3E0DD"/>
<path d="M452.043 -236.799L335.895 196.672" stroke="#E3E0DD"/>
<path d="M457.84 -235.246L341.692 198.225" stroke="#E3E0DD"/>
<path d="M463.637 -233.693L347.488 199.778" stroke="#E3E0DD"/>
<path d="M469.43 -232.14L353.281 201.331" stroke="#E3E0DD"/>
<path d="M475.227 -230.587L359.078 202.884" stroke="#E3E0DD"/>
<path d="M481.023 -229.035L364.875 204.436" stroke="#E3E0DD"/>
<path d="M486.816 -227.482L370.668 205.989" stroke="#E3E0DD"/>
<path d="M492.613 -225.929L376.465 207.542" stroke="#E3E0DD"/>
<path d="M498.41 -224.376L382.262 209.095" stroke="#E3E0DD"/>
<path d="M504.203 -222.823L388.055 210.648" stroke="#E3E0DD"/>
<path d="M510 -221.27L393.852 212.201" stroke="#E3E0DD"/>
<path d="M515.797 -219.717L399.649 213.754" stroke="#E3E0DD"/>
<path d="M521.59 -218.164L405.442 215.307" stroke="#E3E0DD"/>
<path d="M527.387 -216.611L411.238 216.86" stroke="#E3E0DD"/>
<path d="M533.184 -215.058L417.035 218.413" stroke="#E3E0DD"/>
<path d="M538.977 -213.505L422.828 219.966" stroke="#E3E0DD"/>
<path d="M544.773 -211.953L428.625 221.518" stroke="#E3E0DD"/>
<path d="M550.57 -210.4L434.422 223.072" stroke="#E3E0DD"/>
<path d="M556.363 -208.847L440.215 224.624" stroke="#E3E0DD"/>
<path d="M562.16 -207.294L446.012 226.177" stroke="#E3E0DD"/>
<path d="M567.957 -205.741L451.809 227.73" stroke="#E3E0DD"/>
<path d="M573.75 -204.188L457.602 229.283" stroke="#E3E0DD"/>
<path d="M579.547 -202.635L463.399 230.836" stroke="#E3E0DD"/>
<path d="M585.344 -201.082L469.196 232.389" stroke="#E3E0DD"/>
<path d="M591.137 -199.529L474.988 233.942" stroke="#E3E0DD"/>
<path d="M596.934 -197.976L480.785 235.495" stroke="#E3E0DD"/>
<path d="M602.73 -196.423L486.582 237.048" stroke="#E3E0DD"/>
<path d="M608.523 -194.871L492.375 238.601" stroke="#E3E0DD"/>
<path d="M614.32 -193.318L498.172 240.154" stroke="#E3E0DD"/>
<path d="M620.117 -191.765L503.969 241.706" stroke="#E3E0DD"/>
<path d="M625.91 -190.212L509.762 243.259" stroke="#E3E0DD"/>
<path d="M631.707 -188.659L515.559 244.812" stroke="#E3E0DD"/>
<path d="M637.504 -187.106L521.356 246.365" stroke="#E3E0DD"/>
<path d="M643.297 -185.553L527.149 247.918" stroke="#E3E0DD"/>
<path d="M649.094 -184L532.946 249.471" stroke="#E3E0DD"/>
<path d="M654.891 -182.447L538.742 251.024" stroke="#E3E0DD"/>
<path d="M660.684 -180.894L544.535 252.577" stroke="#E3E0DD"/>
<path d="M666.48 -179.341L550.332 254.13" stroke="#E3E0DD"/>
<path d="M672.277 -177.788L556.129 255.683" stroke="#E3E0DD"/>
<path d="M678.07 -176.236L561.922 257.236" stroke="#E3E0DD"/>
<path d="M678.074 -176.236L561.926 257.236" stroke="#E3E0DD"/>
<path d="M683.871 -174.683L567.723 258.788" stroke="#E3E0DD"/>
<path d="M689.664 -173.13L573.516 260.341" stroke="#E3E0DD"/>
<path d="M695.461 -171.577L579.313 261.894" stroke="#E3E0DD"/>
<path d="M701.258 -170.024L585.11 263.447" stroke="#E3E0DD"/>
<path d="M707.051 -168.471L590.903 265" stroke="#E3E0DD"/>
<path d="M712.848 -166.918L596.699 266.553" stroke="#E3E0DD"/>
<path d="M718.645 -165.365L602.496 268.106" stroke="#E3E0DD"/>
<path d="M724.438 -163.812L608.289 269.659" stroke="#E3E0DD"/>
<path d="M730.234 -162.259L614.086 271.212" stroke="#E3E0DD"/>
<path d="M736.027 -160.706L619.879 272.765" stroke="#E3E0DD"/>
<path d="M741.824 -159.154L625.676 274.318" stroke="#E3E0DD"/>
<path d="M747.621 -157.601L631.473 275.871" stroke="#E3E0DD"/>
<path d="M753.414 -156.048L637.266 277.424" stroke="#E3E0DD"/>
<path d="M759.211 -154.495L643.063 278.977" stroke="#E3E0DD"/>
<path d="M765.008 -152.942L648.86 280.529" stroke="#E3E0DD"/>
<path d="M770.801 -151.389L654.653 282.082" stroke="#E3E0DD"/>
<path d="M776.598 -149.836L660.449 283.635" stroke="#E3E0DD"/>
<path d="M782.395 -148.283L666.246 285.188" stroke="#E3E0DD"/>
<path d="M788.188 -146.73L672.039 286.741" stroke="#E3E0DD"/>
<path d="M793.984 -145.177L677.836 288.294" stroke="#E3E0DD"/>
<path d="M799.781 -143.624L683.633 289.847" stroke="#E3E0DD"/>
<path d="M805.574 -142.072L689.426 291.4" stroke="#E3E0DD"/>
<path d="M811.371 -140.519L695.223 292.953" stroke="#E3E0DD"/>
<path d="M817.168 -138.966L701.02 294.505" stroke="#E3E0DD"/>
<path d="M822.961 -137.413L706.813 296.059" stroke="#E3E0DD"/>
<path d="M828.758 -135.86L712.61 297.611" stroke="#E3E0DD"/>
<path d="M834.555 -134.307L718.406 299.164" stroke="#E3E0DD"/>
<path d="M840.348 -132.754L724.199 300.717" stroke="#E3E0DD"/>
<path d="M846.145 -131.201L729.996 302.27" stroke="#E3E0DD"/>
<path d="M851.941 -129.648L735.793 303.823" stroke="#E3E0DD"/>
<path d="M857.734 -128.095L741.586 305.376" stroke="#E3E0DD"/>
<path d="M863.531 -126.542L747.383 306.929" stroke="#E3E0DD"/>
<path d="M869.328 -124.989L753.18 308.482" stroke="#E3E0DD"/>
<path d="M875.121 -123.437L758.973 310.035" stroke="#E3E0DD"/>
<path d="M880.918 -121.884L764.77 311.588" stroke="#E3E0DD"/>
<path d="M886.715 -120.331L770.567 313.141" stroke="#E3E0DD"/>
<path d="M892.508 -118.778L776.36 314.694" stroke="#E3E0DD"/>
<path d="M898.305 -117.225L782.156 316.246" stroke="#E3E0DD"/>
<path d="M904.102 -115.672L787.953 317.799" stroke="#E3E0DD"/>
<path d="M909.895 -114.119L793.746 319.352" stroke="#E3E0DD"/>
<path d="M915.691 -112.566L799.543 320.905" stroke="#E3E0DD"/>
<path d="M921.488 -111.013L805.34 322.458" stroke="#E3E0DD"/>
<path d="M927.281 -109.46L811.133 324.011" stroke="#E3E0DD"/>
<path d="M933.078 -107.907L816.93 325.564" stroke="#E3E0DD"/>
<path d="M938.875 -106.354L822.727 327.117" stroke="#E3E0DD"/>
<path d="M944.668 -104.802L828.52 328.67" stroke="#E3E0DD"/>
<path d="M950.465 -103.249L834.317 330.223" stroke="#E3E0DD"/>
<path d="M956.262 -101.696L840.113 331.776" stroke="#E3E0DD"/>
<path d="M962.055 -100.143L845.906 333.328" stroke="#E3E0DD"/>
<path d="M967.852 -98.5897L851.703 334.881" stroke="#E3E0DD"/>
<path d="M973.648 -97.037L857.5 336.434" stroke="#E3E0DD"/>
<path d="M979.441 -95.484L863.293 337.987" stroke="#E3E0DD"/>
<path d="M985.238 -93.931L869.09 339.54" stroke="#E3E0DD"/>
<path d="M991.035 -92.3781L874.887 341.093" stroke="#E3E0DD"/>
<path d="M996.828 -90.8253L880.68 342.646" stroke="#E3E0DD"/>
<path d="M1002.62 -89.2722L886.477 344.199" stroke="#E3E0DD"/>
<path d="M1008.42 -87.7195L892.274 345.752" stroke="#E3E0DD"/>
<path d="M1014.21 -86.1666L898.067 347.305" stroke="#E3E0DD"/>
<path d="M1020.01 -84.6135L903.863 348.858" stroke="#E3E0DD"/>
<path d="M1025.81 -83.0608L909.66 350.41" stroke="#E3E0DD"/>
<path d="M1031.6 -81.5078L915.453 351.963" stroke="#E3E0DD"/>
<path d="M1037.4 -79.955L921.25 353.516" stroke="#E3E0DD"/>
<path d="M1043.2 -78.402L927.047 355.069" stroke="#E3E0DD"/>
<path d="M1048.99 -76.849L932.84 356.622" stroke="#E3E0DD"/>
<path d="M1054.79 -75.296L938.637 358.175" stroke="#E3E0DD"/>
<path d="M1060.58 -73.7433L944.434 359.728" stroke="#E3E0DD"/>
<path d="M1066.38 -72.1902L950.227 361.281" stroke="#E3E0DD"/>
<path d="M1072.17 -70.6375L956.024 362.834" stroke="#E3E0DD"/>
<path d="M1077.97 -69.0845L961.821 364.387" stroke="#E3E0DD"/>
<path d="M1083.76 -67.5315L967.613 365.94" stroke="#E3E0DD"/>
<path d="M1089.56 -65.9785L973.41 367.493" stroke="#E3E0DD"/>
<path d="M1095.36 -64.4258L979.207 369.045" stroke="#E3E0DD"/>
<path d="M1101.15 -62.8727L985 370.598" stroke="#E3E0DD"/>
<path d="M1106.95 -61.3199L990.797 372.151" stroke="#E3E0DD"/>
<path d="M1112.74 -59.767L996.594 373.704" stroke="#E3E0DD"/>
<path d="M1118.54 -58.214L1002.39 375.257" stroke="#E3E0DD"/>
<path d="M1124.33 -56.6613L1008.18 376.81" stroke="#E3E0DD"/>
<path d="M1130.13 -55.1083L1013.98 378.363" stroke="#E3E0DD"/>
<path d="M1135.92 -53.5554L1019.77 379.916" stroke="#E3E0DD"/>
<path d="M1141.72 -52.0024L1025.57 381.469" stroke="#E3E0DD"/>
<path d="M1147.52 -50.4496L1031.37 383.022" stroke="#E3E0DD"/>
<path d="M1153.31 -48.8965L1037.16 384.575" stroke="#E3E0DD"/>
<path d="M1159.11 -47.3438L1042.96 386.127" stroke="#E3E0DD"/>
<path d="M1164.9 -45.7906L1048.75 387.68" stroke="#E3E0DD"/>
<path d="M1170.7 -44.2379L1054.55 389.233" stroke="#E3E0DD"/>
<path d="M1176.49 -42.6849L1060.34 390.786" stroke="#E3E0DD"/>
<path d="M1182.29 -41.132L1066.14 392.339" stroke="#E3E0DD"/>
<path d="M1188.08 -39.579L1071.93 393.892" stroke="#E3E0DD"/>
<path d="M1193.88 -38.0262L1077.73 395.445" stroke="#E3E0DD"/>
<path d="M1199.67 -36.4731L1083.52 396.998" stroke="#E3E0DD"/>
<path d="M1205.47 -34.9204L1089.32 398.551" stroke="#E3E0DD"/>
<path d="M1211.27 -33.3674L1095.12 400.104" stroke="#E3E0DD"/>
<path d="M1217.06 -31.8145L1100.91 401.657" stroke="#E3E0DD"/>
<path d="M1222.86 -30.2615L1106.71 403.21" stroke="#E3E0DD"/>
<path d="M1228.65 -28.7087L1112.5 404.762" stroke="#E3E0DD"/>
<path d="M1234.45 -27.1559L1118.3 406.315" stroke="#E3E0DD"/>
<path d="M1240.24 -25.6029L1124.09 407.868" stroke="#E3E0DD"/>
<path d="M1246.04 -24.05L1129.89 409.421" stroke="#E3E0DD"/>
<path d="M1251.83 -22.4969L1135.68 410.974" stroke="#E3E0DD"/>
<path d="M1257.63 -20.9442L1141.48 412.527" stroke="#E3E0DD"/>
<path d="M1263.43 -19.3911L1147.28 414.08" stroke="#E3E0DD"/>
<path d="M1269.22 -17.8384L1153.07 415.633" stroke="#E3E0DD"/>
<path d="M1275.02 -16.2854L1158.87 417.186" stroke="#E3E0DD"/>
<path d="M1280.81 -14.7324L1164.66 418.739" stroke="#E3E0DD"/>
<path d="M1286.61 -13.1794L1170.46 420.292" stroke="#E3E0DD"/>
<path d="M1292.4 -11.6267L1176.25 421.844" stroke="#E3E0DD"/>
<path d="M1298.2 -10.0736L1182.05 423.398" stroke="#E3E0DD"/>
<path d="M1303.99 -8.52087L1187.84 424.95" stroke="#E3E0DD"/>
<path d="M1309.79 -6.9679L1193.64 426.503" stroke="#E3E0DD"/>
<path d="M1315.59 -5.41492L1199.44 428.056" stroke="#E3E0DD"/>
<path d="M1321.38 -3.86194L1205.23 429.609" stroke="#E3E0DD"/>
<path d="M1327.18 -2.3092L1211.03 431.162" stroke="#E3E0DD"/>
<path d="M1332.97 -0.756104L1216.82 432.715" stroke="#E3E0DD"/>
<path d="M1338.77 0.796631L1222.62 434.268" stroke="#E3E0DD"/>
<path d="M1344.56 2.34949L1228.41 435.821" stroke="#E3E0DD"/>
<path d="M1350.36 3.90259L1234.21 437.374" stroke="#E3E0DD"/>
</g>
</svg>
