<svg width="28" height="28" viewBox="0 0 28 28" fill="none" xmlns="http://www.w3.org/2000/svg">
<path d="M24.2441 19.8691L18.9941 25.1191C18.8299 25.2833 18.6072 25.3755 18.375 25.3755C18.1428 25.3755 17.9201 25.2833 17.7559 25.1191C17.5918 24.9549 17.4995 24.7322 17.4995 24.5C17.4995 24.2678 17.5918 24.0451 17.7559 23.8809L21.513 20.125H7.875C7.64294 20.125 7.42038 20.0328 7.25628 19.8687C7.09219 19.7046 7 19.4821 7 19.25V3.5C7 3.26794 7.09219 3.04538 7.25628 2.88128C7.42038 2.71719 7.64294 2.625 7.875 2.625C8.10706 2.625 8.32962 2.71719 8.49372 2.88128C8.65781 3.04538 8.75 3.26794 8.75 3.5V18.375H21.513L17.7559 14.6191C17.5918 14.4549 17.4995 14.2322 17.4995 14C17.4995 13.7678 17.5918 13.5451 17.7559 13.3809C17.9201 13.2168 18.1428 13.1245 18.375 13.1245C18.6072 13.1245 18.8299 13.2168 18.9941 13.3809L24.2441 18.6309C24.3254 18.7122 24.39 18.8087 24.434 18.9149C24.478 19.0212 24.5007 19.135 24.5007 19.25C24.5007 19.365 24.478 19.4789 24.434 19.5851C24.39 19.6913 24.3254 19.7878 24.2441 19.8691Z" fill="#686564"/>
</svg>
