<svg width="32" height="32" viewBox="0 0 32 32" fill="none" xmlns="http://www.w3.org/2000/svg">
<path d="M19.5029 2.5C20.9897 2.49964 22.4378 2.97275 23.6377 3.85059C24.8378 4.72867 25.7272 5.96637 26.1768 7.38379L26.2305 7.55078L26.376 7.64844L29.2803 9.58398C29.3488 9.62961 29.4054 9.6911 29.4443 9.76367C29.4832 9.83629 29.5029 9.91762 29.5029 10C29.5029 10.0824 29.4832 10.1637 29.4443 10.2363C29.4054 10.3089 29.3488 10.3704 29.2803 10.416L26.7256 12.1191L26.502 12.2676V15C26.4983 18.3141 25.1803 21.4915 22.8369 23.835C20.4934 26.1783 17.3161 27.4965 14.002 27.5H3.00293C2.72052 27.4996 2.44399 27.4191 2.20508 27.2686C1.96621 27.118 1.77446 26.903 1.65234 26.6484C1.53028 26.3938 1.48254 26.1096 1.51465 25.8291C1.54644 25.5518 1.65519 25.2892 1.82812 25.0703L1.83984 25.0547L12.3867 12.3984L12.502 12.2598V9.61133C12.502 5.8243 15.4428 2.71811 19.1113 2.51074L19.4688 2.5H19.5029ZM14.8652 14.4922C14.6668 14.5122 14.474 14.5717 14.2988 14.667C14.1674 14.7384 14.0476 14.8291 13.9434 14.9355L13.8506 15.04L6.35059 24.04C6.22319 24.189 6.12651 24.3616 6.06543 24.5479C6.00332 24.7374 5.97899 24.9379 5.99512 25.1367C6.01128 25.3354 6.06739 25.5291 6.15918 25.7061C6.25097 25.8829 6.37723 26.0394 6.53027 26.167C6.68351 26.2947 6.86104 26.3908 7.05176 26.4492C7.24226 26.5075 7.44242 26.5278 7.64062 26.5078C7.839 26.4878 8.03186 26.4282 8.20703 26.333C8.37945 26.2392 8.53071 26.1114 8.6543 25.959L8.65527 25.96L16.1484 16.9668L16.1494 16.9678C16.28 16.8171 16.3793 16.6416 16.4414 16.4521C16.5035 16.2626 16.5269 16.0621 16.5107 15.8633C16.4946 15.6646 16.4385 15.4709 16.3467 15.2939C16.2549 15.1171 16.1287 14.9606 15.9756 14.833C15.8225 14.7054 15.6456 14.6092 15.4551 14.5508C15.2644 14.4924 15.0636 14.4722 14.8652 14.4922ZM21.2676 6.65234C20.9022 6.50103 20.5002 6.46097 20.1123 6.53809C19.7243 6.61526 19.3676 6.80623 19.0879 7.08594C18.8084 7.3655 18.6182 7.72169 18.541 8.10938C18.4638 8.49734 18.5029 8.90017 18.6543 9.26562C18.8057 9.63103 19.0627 9.94334 19.3916 10.1631C19.7203 10.3826 20.1067 10.4999 20.502 10.5C21.0324 10.5 21.5419 10.2891 21.917 9.91406C22.2919 9.53902 22.502 9.03031 22.502 8.5C22.502 8.10444 22.3848 7.71757 22.165 7.38867C21.9453 7.0599 21.6329 6.80368 21.2676 6.65234Z" stroke="#A783FF"/>
</svg>
