<svg width="32" height="32" viewBox="0 0 32 32" fill="none" xmlns="http://www.w3.org/2000/svg">
<g clip-path="url(#clip0_809_29)">
<path d="M4.5 9.99927C4.49716 8.41248 5.07205 6.87879 6.11719 5.68481C7.16239 4.49091 8.6065 3.71714 10.1797 3.51001C10.4994 3.47188 10.823 3.5385 11.1025 3.69849C11.3833 3.85928 11.6047 4.10677 11.7334 4.40356L11.7363 4.40942L14.332 10.2043V10.217L14.374 10.3127C14.4724 10.5398 14.5129 10.7878 14.4922 11.0344C14.4714 11.2808 14.3896 11.5185 14.2549 11.7258C14.2439 11.7421 14.2306 11.7601 14.2119 11.7834L11.6182 14.8586L11.4072 15.1086L11.5518 15.4016C12.5377 17.4051 14.6088 19.4579 16.6348 20.4446L16.9287 20.5881L17.1777 20.3762L20.2197 17.7864C20.2342 17.7744 20.2499 17.7635 20.2656 17.7532L20.2676 17.7522C20.475 17.6139 20.7136 17.529 20.9619 17.5061C21.2101 17.4832 21.4603 17.5224 21.6895 17.6204L21.6934 17.6223L21.6982 17.6252L27.5869 20.2639L27.5938 20.2668C27.891 20.3951 28.1385 20.6161 28.2998 20.8967C28.4611 21.1775 28.5272 21.503 28.4883 21.8245C28.2803 23.396 27.5082 24.8388 26.3154 25.8831C25.1215 26.9282 23.5877 27.5031 22.001 27.5002H22C12.3512 27.5002 4.50014 19.649 4.5 10.0002V9.99927Z" stroke="#FF7733"/>
</g>
<defs>
<clipPath id="clip0_809_29">
<rect width="32" height="32" fill="white"/>
</clipPath>
</defs>
</svg>
