<svg width="32" height="32" viewBox="0 0 32 32" fill="none" xmlns="http://www.w3.org/2000/svg">
<path d="M15.999 3.5C19.3133 3.5035 22.4914 4.8215 24.835 7.16504C27.1053 9.4354 28.4134 12.4886 28.4961 15.6904L28.5 16.001C28.4998 18.4728 27.7668 20.8891 26.3936 22.9443C25.02 25 23.0673 26.6027 20.7832 27.5488C18.4993 28.4948 15.9861 28.742 13.5615 28.2598C11.1368 27.7775 8.90929 26.587 7.16113 24.8389C5.41298 23.0907 4.22255 20.8632 3.74023 18.4385C3.25799 16.0139 3.50523 13.5007 4.45117 11.2168C5.39727 8.93272 7.00005 6.97996 9.05566 5.60645C11.1109 4.23323 13.5272 3.50019 15.999 3.5ZM23.5 9.25098C23.5007 9.609 23.373 9.95521 23.1406 10.2275L20.3711 13.4463C20.1312 13.7242 19.7975 13.9046 19.4336 13.9531H19.4326L15.4961 14.4873C15.1218 14.5385 14.7422 14.4453 14.4336 14.2275L14.4258 14.2227L14.4189 14.2178L11.96 12.6094L11.9531 12.6045L11.9512 12.6035L11.5283 12.2783L11.2305 12.7217L8.61035 16.6348L8.52734 16.7588L8.52637 16.9092L8.5 21.4385V21.4395C8.49893 21.6864 8.43682 21.9292 8.31934 22.1465C8.20195 22.3635 8.03295 22.5486 7.82715 22.6846L7.5127 22.8906L7.02832 23.208L7.41211 23.6406C9.1644 25.6156 11.5438 26.9264 14.1494 27.3525C16.7552 27.7786 19.4285 27.2935 21.7188 25.9795L22.2842 25.6553L21.8242 25.1934L21.5293 24.8975L21.4336 24.8008L21.3027 24.7666L18.6201 24.0586H18.6191C18.262 23.9649 17.9516 23.7426 17.748 23.4346C17.5448 23.1267 17.4619 22.7546 17.5156 22.3896L17.8145 20.3662C17.8528 20.1098 17.957 19.8678 18.1162 19.6631C18.275 19.4589 18.4833 19.2987 18.7217 19.1982L22.5293 17.6172L22.5283 17.6162C22.7922 17.5072 23.0822 17.4766 23.3633 17.5264C23.6443 17.5762 23.905 17.7055 24.1152 17.8984L24.1162 17.8994L26.1338 19.7441L26.708 20.2695L26.9473 19.5283C27.5791 17.569 27.6723 15.4756 27.2178 13.4678C26.7632 11.46 25.7773 9.61128 24.3633 8.11523L23.5 7.20215V9.25098Z" stroke="#10BAE9"/>
</svg>
