<svg width="32" height="32" viewBox="0 0 32 32" fill="none" xmlns="http://www.w3.org/2000/svg">
<path d="M16 3C18.7889 3 20.2588 3.74294 20.7764 4.93945C21.0572 5.58815 21.0872 6.42719 20.793 7.49023C20.4984 8.55418 19.8881 9.80675 18.9424 11.2441L18.9414 11.2451C18.8597 11.3701 18.7778 11.4924 18.6963 11.6123L19.3877 12.3096L19.7598 12.0615C21.1971 11.1145 22.4499 10.5035 23.5137 10.209C24.5765 9.91482 25.415 9.94578 26.0635 10.2275H26.0645C27.2564 10.7414 28 12.2103 28 15C28 17.7889 27.2565 19.2569 26.0605 19.7734C25.6905 19.9284 25.2928 20.0062 24.8916 20H24.8887C24.5695 19.9972 24.2506 19.9616 23.9385 19.8945L23.9316 19.8936L23.9277 19.8906C22.1528 17.3692 20.1319 15.0301 17.8945 12.9082H17.8936C17.6046 12.6347 17.2189 12.4871 16.8213 12.498C16.4238 12.509 16.0469 12.6772 15.7734 12.9658C15.4999 13.2547 15.3524 13.6414 15.3633 14.0391C15.3743 14.4365 15.5423 14.8135 15.8311 15.0869L15.833 15.0889C16.7477 15.9462 18.7304 17.9081 20.7012 20.5312C22.6754 23.1589 24.6154 26.4214 25.4795 29.8789C25.5116 30.0074 25.4919 30.1432 25.4238 30.2568C25.3727 30.3421 25.2976 30.4102 25.209 30.4521L25.1172 30.4844C25.078 30.4941 25.0374 30.4986 24.9971 30.499C24.887 30.4981 24.7802 30.4614 24.6934 30.3936C24.6277 30.3422 24.576 30.2758 24.543 30.2002L24.5166 30.1211L24.4121 29.7246C23.8647 27.7449 22.9506 25.836 21.9023 24.0977L21.1426 22.8389L20.9766 24.2998C20.9469 24.561 20.88 24.8166 20.7773 25.0586C20.2586 26.2567 18.7888 27 16 27C13.2112 27 11.7413 26.2572 11.2236 25.0596V25.0586C10.943 24.4107 10.9128 23.5725 11.207 22.5098C11.5011 21.4476 12.1104 20.1974 13.0537 18.7627C13.138 18.6387 13.2271 18.5078 13.3115 18.376L12.6123 17.6904L12.2393 17.9395C10.2377 19.2622 8.60972 19.9157 7.35645 19.9922L7.11133 20H7.10352C6.70084 20.0062 6.30094 19.9285 5.92969 19.7725H5.92871C4.74069 19.2539 4 17.7846 4 15C4 12.2111 4.74294 10.7412 5.93945 10.2236C6.58815 9.94282 7.42719 9.91277 8.49023 10.207C9.42124 10.4648 10.4966 10.9643 11.7139 11.7188L12.2441 12.0576L12.6162 12.3057L13.3096 11.6123L13.0596 11.2373C12.1136 9.80102 11.5033 8.54949 11.209 7.48633C10.9148 6.42355 10.9458 5.58504 11.2275 4.93652V4.93555C11.7414 3.74358 13.2103 3 16 3Z" stroke="#09CC5D"/>
</svg>
