<svg width="32" height="32" viewBox="0 0 32 32" fill="none" xmlns="http://www.w3.org/2000/svg">
<path d="M13.0195 16.3306C13.0641 16.7321 13.1888 17.1223 13.3896 17.4771C13.6819 17.9935 14.1205 18.4123 14.6504 18.6793C15.1802 18.9461 15.7774 19.0495 16.3662 18.9771C16.8052 18.9231 17.2199 18.7697 17.5879 18.5396L17.6182 19.4517C17.6483 20.3889 17.4896 21.3229 17.1523 22.1978C16.815 23.0728 16.3058 23.8719 15.6543 24.5464C15.0028 25.221 14.2221 25.758 13.3594 26.1255C12.4968 26.4929 11.5693 26.6826 10.6318 26.6851C10.0937 26.6844 9.55771 26.6229 9.03418 26.5005L8.80957 26.4439C7.26871 26.0313 5.91509 25.1049 4.97266 23.8179C4.0891 22.6113 3.61649 21.1559 3.62012 19.6656L3.62695 19.3677C3.63193 19.2633 3.66942 19.1626 3.73438 19.0806C3.79932 18.9987 3.88873 18.9394 3.98926 18.9107H3.99023L12.0986 16.5943L13.0195 16.3306ZM21.2539 11.8423C22.3424 11.7446 23.4388 11.9032 24.4551 12.3052C25.4714 12.7072 26.3794 13.3418 27.1064 14.1578C27.8335 14.9737 28.36 15.9488 28.6426 17.0045C29.0543 18.5444 28.9275 20.1787 28.2842 21.6373C27.6407 23.096 26.5187 24.2917 25.1035 25.0259C25.0105 25.0743 24.9045 25.0919 24.8008 25.0767C24.6971 25.0616 24.6007 25.0148 24.5254 24.942L18.4658 19.0767L17.7783 18.4117C17.9961 18.2512 18.1948 18.0632 18.3643 17.8463C18.854 17.2192 19.0746 16.423 18.9775 15.6334C18.9051 15.0447 18.6597 14.4909 18.2725 14.0416C18.0284 13.7584 17.7349 13.5248 17.4082 13.3511L18.1865 12.8687C19.1149 12.292 20.1654 11.9402 21.2539 11.8423ZM13.8799 2.71832C14.7919 2.4963 15.7396 2.46033 16.666 2.61188C17.5914 2.76332 18.4774 3.09895 19.2705 3.59918V3.60016C19.3587 3.6566 19.4271 3.73915 19.4658 3.83649C19.4948 3.90939 19.5059 3.98759 19.499 4.065L19.4863 4.14215L17.4375 12.3218L17.2041 13.2525C17.074 13.1955 16.9397 13.1472 16.8018 13.1089C16.23 12.9505 15.624 12.9651 15.0605 13.1509C14.4971 13.3368 14.001 13.6853 13.6357 14.1529C13.2705 14.6205 13.0527 15.1862 13.0088 15.7779C13.0006 15.8884 12.9989 15.9989 13.0029 16.1089L12.2002 15.6744C11.3748 15.2269 10.6477 14.6175 10.0625 13.8834C9.4773 13.1493 9.04521 12.3052 8.79297 11.4009C8.54074 10.4967 8.473 9.5507 8.59375 8.61969C8.71451 7.68866 9.02149 6.79105 9.49609 5.98102C9.97063 5.17118 10.6035 4.46527 11.3564 3.90485C12.1095 3.34438 12.9678 2.94039 13.8799 2.71832Z" stroke="#D86769"/>
</svg>
