<svg width="32" height="32" viewBox="0 0 32 32" fill="none" xmlns="http://www.w3.org/2000/svg">
<path d="M7.03125 12.0088C10.1405 6.86656 17.5259 4.01434 26.9629 4.56836H26.9639C27.086 4.57561 27.2016 4.62734 27.2881 4.71387C27.353 4.77888 27.3983 4.8601 27.4199 4.94824L27.4336 5.03809C27.9889 14.4764 25.1345 21.8604 19.9922 24.9697L19.9902 24.9717C18.352 25.9761 16.4665 26.5049 14.5449 26.5H14.5439L14.1455 26.4932L13.8281 26.4775C12.2395 26.3763 10.6308 25.9358 9.02539 25.1592L8.70508 25.0039L6.35547 27.3535C6.30686 27.4021 6.24854 27.4407 6.18457 27.4658C6.12064 27.4909 6.05203 27.5025 5.9834 27.5C5.91478 27.4975 5.84706 27.4809 5.78516 27.4512C5.72591 27.4227 5.67367 27.382 5.62988 27.333C5.5468 27.2317 5.50371 27.1036 5.51074 26.9727C5.51786 26.841 5.57453 26.717 5.66895 26.625L7.4502 24.8438L19.0605 13.0566C19.1986 12.9179 19.3089 12.7541 19.3838 12.5732C19.4592 12.3912 19.498 12.196 19.498 11.999C19.498 11.802 19.4592 11.6068 19.3838 11.4248C19.3084 11.2428 19.1979 11.0768 19.0586 10.9375C18.9194 10.7983 18.7541 10.6877 18.5723 10.6123C18.3902 10.5369 18.1941 10.498 17.9971 10.498C17.8002 10.4981 17.6048 10.537 17.4229 10.6123C17.241 10.6877 17.0757 10.7983 16.9365 10.9375L16.9336 10.9404L6.30859 21.7285L6.30566 21.7217L6.1377 21.2539C5.82089 20.3137 5.61997 19.3384 5.53906 18.3496L5.50879 17.8545C5.42621 15.7991 5.95565 13.7657 7.03027 12.0117L7.03125 12.0088Z" stroke="#06E9BF"/>
</svg>
