<svg width="32" height="32" viewBox="0 0 32 32" fill="none" xmlns="http://www.w3.org/2000/svg">
<path d="M13.582 19.1864L13.5869 19.1903C14.2814 19.7154 15.1284 19.9998 15.999 19.9998C16.8699 19.9998 17.7175 19.7155 18.4121 19.1903L18.417 19.1864L21.9102 25.2381V25.2391C22.0143 25.4193 22.0799 25.6191 22.1025 25.826C22.1252 26.033 22.1047 26.2427 22.042 26.4413C21.9793 26.6397 21.8756 26.823 21.7383 26.9793C21.6011 27.1354 21.4325 27.2618 21.2441 27.3495C19.5996 28.1073 17.8098 28.4998 15.999 28.4998C14.1884 28.4998 12.3993 28.1073 10.7549 27.3495H10.7539C10.5657 27.2618 10.3978 27.1352 10.2607 26.9793C10.1233 26.823 10.0198 26.6397 9.95703 26.4413C9.89427 26.2427 9.87385 26.033 9.89648 25.826C9.91914 25.6191 9.98472 25.4194 10.0889 25.2391V25.2381L13.5811 19.1854L13.582 19.1864ZM16.1943 15.0194C16.3883 15.058 16.5662 15.153 16.7061 15.2928C16.8459 15.4326 16.9419 15.6106 16.9805 15.8045C17.0191 15.9985 16.9985 16.1999 16.9229 16.3827C16.8472 16.5653 16.719 16.7211 16.5547 16.8309C16.3902 16.9408 16.1968 16.9998 15.999 16.9998C15.7339 16.9998 15.4795 16.8943 15.292 16.7069C15.1045 16.5194 14.999 16.265 14.999 15.9998C14.999 15.8021 15.0581 15.6086 15.168 15.4442C15.2778 15.2799 15.4337 15.1517 15.6162 15.076C15.7989 15.0003 16.0004 14.9808 16.1943 15.0194ZM22.0664 5.53403C22.2702 5.48931 22.4811 5.48777 22.6855 5.52914C22.89 5.57053 23.0836 5.65387 23.2539 5.77426H23.2549C24.7333 6.81654 25.9677 8.1686 26.8721 9.7352C27.7199 11.2039 28.2585 12.8288 28.457 14.5106L28.4922 14.8475C28.5109 15.058 28.4865 15.2702 28.4189 15.4706C28.3682 15.621 28.2941 15.7623 28.2002 15.8895L28.0996 16.0116C27.9598 16.1645 27.79 16.2869 27.6006 16.3709C27.4109 16.455 27.2055 16.4991 26.998 16.4998H19.9678C19.9883 16.3343 19.9987 16.1677 19.999 16.0008V15.9998C19.9992 15.2177 19.7699 14.4529 19.3398 13.7997C18.9101 13.1469 18.2989 12.6341 17.5811 12.325L21.0889 6.24985C21.193 6.06919 21.3337 5.91213 21.502 5.78891C21.6703 5.6657 21.8627 5.57878 22.0664 5.53403ZM9.3125 5.52914C9.51691 5.48776 9.72793 5.48937 9.93164 5.53403C10.1354 5.57876 10.3277 5.66568 10.4961 5.78891C10.6645 5.91216 10.8059 6.06908 10.9102 6.24985L14.417 12.325C13.6994 12.6341 13.0879 13.147 12.6582 13.7997C12.2282 14.4529 11.9988 15.2178 11.999 15.9998V16.0008C11.9993 16.1676 12.0098 16.3343 12.0303 16.4998H5.00098C4.79343 16.4991 4.5882 16.455 4.39844 16.3709C4.20877 16.2869 4.03835 16.1647 3.89844 16.0116C3.75592 15.8553 3.64765 15.671 3.58008 15.4706C3.51256 15.2703 3.48711 15.058 3.50586 14.8475C3.66912 13.046 4.22262 11.3018 5.12695 9.7352C5.97489 8.26639 7.11247 6.98652 8.46973 5.97348L8.74414 5.77426C8.9144 5.65384 9.10812 5.57058 9.3125 5.52914Z" stroke="#FCEA62"/>
</svg>
