<svg width="32" height="32" viewBox="0 0 32 32" fill="none" xmlns="http://www.w3.org/2000/svg">
<path d="M4 24.4999H28C28.1326 24.4999 28.2598 24.5527 28.3535 24.6464C28.4473 24.7401 28.5 24.8673 28.5 24.9999C28.5 25.1325 28.4473 25.2597 28.3535 25.3534C28.2597 25.4472 28.1326 25.4999 28 25.4999H4C3.86739 25.4999 3.74025 25.4472 3.64648 25.3534C3.55275 25.2597 3.5 25.1325 3.5 24.9999C3.50003 24.8673 3.55274 24.7401 3.64648 24.6464C3.74025 24.5527 3.86741 24.4999 4 24.4999ZM16 3.49991C16.3745 3.49991 16.7441 3.58383 17.082 3.74503C17.4201 3.90631 17.7184 4.1414 17.9541 4.43253L28.1602 17.036C28.3397 17.2578 28.4527 17.5261 28.4863 17.8095C28.5199 18.0928 28.4731 18.38 28.3506 18.6376C28.228 18.8952 28.0349 19.1129 27.7939 19.2655C27.5528 19.4182 27.2727 19.4993 26.9873 19.4999H5.0127C4.72732 19.4993 4.44717 19.4182 4.20605 19.2655C3.96507 19.1129 3.77199 18.8952 3.64941 18.6376C3.52685 18.38 3.48009 18.0928 3.51367 17.8095C3.54312 17.5615 3.633 17.3248 3.77539 17.121L3.83984 17.036L14.0459 4.43253C14.2816 4.1414 14.5799 3.90631 14.918 3.74503C15.2559 3.58383 15.6255 3.49991 16 3.49991Z" stroke="#9B09CC"/>
</svg>
