<svg width="200" height="64" viewBox="0 0 200 64" fill="none" xmlns="http://www.w3.org/2000/svg">
<path d="M102.206 40.8516L97.6892 22.4709H101.313L104.28 34.5234L107.247 22.4709H111.133L114.101 34.5234L117.068 22.4709H120.691L116.175 40.8516H112.289L109.19 28.274L106.092 40.8516H102.206ZM124.466 41.2192C122.102 41.2192 120.159 39.775 120.159 37.4118C120.159 34.2608 123.021 33.4993 126.12 32.9479C127.774 32.659 128.798 32.6853 128.536 31.3987C128.378 30.6372 127.722 30.2696 126.383 30.2696C124.807 30.2696 124.203 31.2149 124.151 32.0026L120.291 31.74C120.291 30.9523 120.606 27.3024 126.383 27.3024C130.584 27.3024 132.474 29.1405 132.474 33.0792V40.8516H128.719V38.1732C128.063 39.8275 126.75 41.2192 124.466 41.2192ZM124.046 36.9391C124.046 37.8581 124.728 38.252 125.647 38.252C127.223 38.252 128.719 36.9916 128.719 35.101V34.2345C128.299 34.7334 127.485 35.0223 126.015 35.3636C124.728 35.6525 124.046 36.1514 124.046 36.9391ZM134.302 40.8516V22.2083H138.188V40.8516H134.302ZM145.648 40.8516C142.864 40.8516 141.21 39.6437 141.21 36.2827V30.6897H138.978V27.7225H141.21V23.7576L144.965 23.495V27.7225H148.378V30.6897H144.965V35.9938C144.965 37.6218 145.227 37.8844 146.75 37.8844H148.378V40.8516H145.648ZM155.302 41.2717C152.151 41.2717 148.659 39.3811 148.659 34.3658C148.659 29.3768 152.151 27.3024 155.302 27.3024C158.453 27.3024 161.551 29.3768 161.551 34.3658V35.0748H152.545C152.545 37.1754 153.464 38.3045 155.302 38.3045C157.14 38.3045 157.665 37.228 157.796 36.7028L161.551 36.9654C161.42 39.5912 158.453 41.2717 155.302 41.2717ZM152.545 32.7641H158.033C158.033 31.4512 157.14 30.2696 155.302 30.2696C153.464 30.2696 152.545 31.4512 152.545 32.7641ZM162.615 40.8516V27.7225H166.502V30.1908C167.158 28.4315 168.366 27.7225 169.81 27.7225H171.569V30.6897H169.022C166.922 30.6897 166.502 32.0814 166.502 34.9698V40.8516H162.615ZM170.54 40.8516V36.6503H175.004V40.8516H170.54Z" fill="#686564"/>
<path d="M66.1133 46.9043H66.1123V31.6543L55.6719 46.9043H45V28.2002L51.999 17.0977H66.1133V46.9043Z" fill="#686564"/>
<path d="M87.2305 46.9053H66.1172V31.6465L73.0732 17.0986H87.2305V46.9053ZM76.7891 46.9043H87.2295V31.6543L76.7891 46.9043Z" fill="#686564"/>
</svg>
