<svg width="200" height="64" viewBox="0 0 200 64" fill="none" xmlns="http://www.w3.org/2000/svg">
<path d="M163.889 46.0684C159.022 46.0684 155.703 42.6865 155.703 37.6295C155.703 32.7304 158.895 29.2537 163.384 29.2537C167.903 29.2537 171.001 32.6988 171.001 37.7243V38.7041H159.464C159.464 41.201 161.171 42.9078 163.7 42.9078C165.47 42.9078 166.829 42.0544 167.303 40.6321L170.969 40.9482C170.463 44.0456 167.65 46.0684 163.889 46.0684ZM167.271 35.9227C167.271 33.8367 165.659 32.4144 163.352 32.4144C161.045 32.4144 159.464 33.8367 159.464 35.9227H167.271Z" fill="#686564"/>
<path d="M148.234 46.0684C145.737 46.0684 143.809 44.7409 142.893 42.5601V51.884H139.258V29.7594H142.893V32.762C143.809 30.5812 145.737 29.2537 148.234 29.2537C152.28 29.2537 155.124 32.7304 155.124 37.6611C155.124 42.5917 152.28 46.0684 148.234 46.0684ZM147.159 42.9078C149.688 42.9078 151.395 40.8217 151.395 37.6611C151.395 34.5004 149.688 32.4144 147.159 32.4144C144.631 32.4144 142.924 34.5004 142.924 37.6611C142.924 40.8217 144.631 42.9078 147.159 42.9078Z" fill="#686564"/>
<path d="M133.219 45.5631V29.7598H136.854V45.5631H133.219ZM132.871 27.4525V23.7229H137.233V27.4525H132.871Z" fill="#686564"/>
<path d="M122.738 45.5629V29.7596H126.373V33.2995C127.005 30.9922 128.206 29.7596 129.881 29.7596H132.789V32.9202H130.197C127.479 32.9202 126.373 34.627 126.373 38.7674V45.5629H122.738Z" fill="#686564"/>
<path d="M102.973 45.5629V23.4383H110.432C116.816 23.4383 121.241 27.958 121.241 34.5006C121.241 41.0432 116.816 45.5629 110.432 45.5629H102.973ZM110.432 42.4022C114.635 42.4022 117.512 39.1784 117.512 34.5006C117.512 29.8228 114.635 26.5989 110.432 26.5989H106.702V42.4022H110.432Z" fill="#686564"/>
<path d="M84.9629 26.3853C84.9629 27.9423 86.225 29.2044 87.7819 29.2044H89.1917C90.7486 29.2044 92.0107 30.4665 92.0107 32.0234V37.6607C92.0107 39.2176 90.7486 40.4798 89.1917 40.4798H86.3718C84.8149 40.4798 83.5527 41.7419 83.5527 43.2988V47.5279C83.5527 49.0848 82.2906 50.347 80.7337 50.347H63.8191C62.2621 50.347 61 49.0848 61 47.5279V41.8897C61 40.3327 62.2621 39.0706 63.8191 39.0706H77.9153C79.4722 39.0706 80.7344 37.8085 80.7344 36.2516V33.4326C80.7344 31.8757 79.4722 30.6136 77.9153 30.6136H73.6862C72.1293 30.6136 70.8672 29.3514 70.8672 27.7945V22.1563C70.8672 20.5993 72.1293 19.3372 73.6862 19.3372H82.1438C83.7008 19.3372 84.9629 20.5993 84.9629 22.1563V26.3853ZM69.457 27.7945C69.457 29.3514 68.1949 30.6136 66.638 30.6136H63.8191C62.2621 30.6136 61 29.3514 61 27.7945V22.1563C61 20.5993 62.2621 19.3372 63.8191 19.3372H66.638C68.1949 19.3372 69.457 20.5993 69.457 22.1563V27.7945Z" fill="#686564"/>
</svg>
