<svg width="200" height="64" viewBox="0 0 200 64" fill="none" xmlns="http://www.w3.org/2000/svg">
<path d="M161.773 41.6726V25.515H165.906V27.8765C166.745 26.0743 168.361 25.1421 170.847 25.1421C174.327 25.1421 176.999 27.7211 176.999 31.7916V41.6726H172.804V32.817C172.804 30.0205 171.406 28.8086 169.324 28.8086C167.553 28.8086 165.968 30.0205 165.968 32.817V41.6726H161.773Z" fill="#686564"/>
<path d="M152.042 42.0769C147.039 42.0769 143.684 38.286 143.684 33.6252C143.684 28.9643 147.195 25.1113 152.042 25.1113C156.889 25.1113 160.245 28.9643 160.245 33.6252C160.245 34.0913 160.214 34.5884 160.121 35.1166H148.034C148.5 37.0121 149.929 38.3482 152.042 38.3482C153.844 38.3482 155.243 37.416 155.988 36.1731L159.251 38.6278C157.946 40.6475 155.243 42.0769 152.042 42.0769ZM148.034 31.9783H156.019C155.553 30.1761 154.031 28.7157 151.98 28.7157C149.991 28.7157 148.5 30.0518 148.034 31.9783Z" fill="#686564"/>
<path d="M136.704 42.0769C133.969 42.0769 131.763 41.1447 129.992 39.2493L132.82 36.6703C134.001 38.0064 135.243 38.6589 136.611 38.6589C138.04 38.6589 138.848 37.9442 138.848 36.981C138.848 36.142 138.444 35.676 135.896 35.0856C131.577 34.0602 130.924 32.1026 130.924 30.0518C130.924 27.2243 133.162 25.1113 136.952 25.1113C139.562 25.1113 141.303 25.7638 142.949 27.9078L139.904 30.2383C139.127 28.9954 138.133 28.4982 137.046 28.4982C135.896 28.4982 135.026 28.9332 135.026 29.9276C135.026 30.4869 135.274 30.984 137.201 31.4812C141.893 32.693 142.98 34.4331 142.98 36.8567C142.98 39.8397 140.277 42.0769 136.704 42.0769Z" fill="#686564"/>
<path d="M121.353 42.077C116.35 42.077 112.746 38.2862 112.746 33.6253C112.746 28.9645 116.35 25.1426 121.353 25.1426C126.356 25.1426 129.96 28.9645 129.96 33.6253C129.96 38.2862 126.356 42.077 121.353 42.077ZM116.941 33.6253C116.941 36.1422 118.681 38.2551 121.353 38.2551C124.025 38.2551 125.765 36.1422 125.765 33.6253C125.765 31.1085 124.025 28.9645 121.353 28.9645C118.681 28.9645 116.941 31.1085 116.941 33.6253Z" fill="#686564"/>
<path d="M96.1094 41.6726V25.515H100.242V27.8765C101.081 26.0743 102.697 25.1421 105.183 25.1421C108.663 25.1421 111.335 27.7211 111.335 31.7916V41.6726H107.14V32.817C107.14 30.0205 105.742 28.8086 103.66 28.8086C101.889 28.8086 100.304 30.0205 100.304 32.817V41.6726H96.1094Z" fill="#686564"/>
<path d="M85.9547 42.0766C80.9521 42.0766 77.3477 38.2857 77.3477 33.6249C77.3477 28.964 80.9521 25.1421 85.9547 25.1421C90.9574 25.1421 94.5618 28.964 94.5618 33.6249C94.5618 38.2857 90.9574 42.0766 85.9547 42.0766ZM81.5424 33.6249C81.5424 36.1417 83.2825 38.2547 85.9547 38.2547C88.6269 38.2547 90.367 36.1417 90.367 33.6249C90.367 31.108 88.6269 28.964 85.9547 28.964C83.2825 28.964 81.5424 31.108 81.5424 33.6249Z" fill="#686564"/>
<path d="M50 41.6728V25.5151H54.1326V27.8766C54.9716 26.0744 56.5874 25.1423 59.0731 25.1423C61.3414 25.1423 63.2679 26.2298 64.3244 28.1874C65.4119 26.2298 66.9655 25.1423 69.7931 25.1423C73.2732 25.1423 75.9455 27.7213 75.9455 31.7918V41.6728H71.7507V32.8171C71.7507 30.0206 70.4146 28.8088 68.5192 28.8088C66.5616 28.8088 65.2255 29.7099 65.2255 32.8171V41.6728H61.0307V32.8171C61.0307 30.0206 59.6324 28.8088 57.5506 28.8088C55.7795 28.8088 54.1948 30.0206 54.1948 32.8171V41.6728H50Z" fill="#686564"/>
</svg>
