<svg width="200" height="64" viewBox="0 0 200 64" fill="none" xmlns="http://www.w3.org/2000/svg">
<path d="M69.1172 41.9274V21.3279H78.9704C81.0832 21.3279 82.8118 21.8561 84.1563 22.9125C85.5008 23.9497 86.173 25.3998 86.173 27.2629C86.173 29.7598 84.9822 31.4212 82.6005 32.2471V32.3335C84.3291 32.9097 85.3279 34.1678 85.5968 36.1077C85.712 36.78 85.7889 37.6155 85.8273 38.6142C85.8849 39.5938 85.9521 40.3333 86.029 40.8326C86.1058 41.3128 86.2498 41.5913 86.4611 41.6681V41.9274H81.5057C81.3521 41.8314 81.2272 41.5529 81.1312 41.0919C81.0543 40.631 80.9871 39.9779 80.9295 39.1328C80.8719 38.2877 80.8047 37.6251 80.7278 37.1449C80.4589 35.1858 79.3161 34.2062 77.2994 34.2062H74.2166V41.9274H69.1172ZM74.2166 30.432H78.0484C79.0472 30.432 79.8059 30.2112 80.3245 29.7694C80.8431 29.3276 81.1024 28.713 81.1024 27.9255C81.1024 27.1572 80.8527 26.5426 80.3533 26.0816C79.8539 25.6015 79.124 25.3614 78.1637 25.3614H74.2166V30.432Z" fill="#686564"/>
<path d="M93.7794 42.3596C91.3978 42.3596 89.4867 41.6297 88.0461 40.17C86.6248 38.6911 85.9142 36.8088 85.9142 34.5231C85.9142 32.2951 86.6152 30.4416 88.0173 28.9627C89.4387 27.4838 91.2633 26.7443 93.4913 26.7443C95.5081 26.7443 97.1887 27.3589 98.5332 28.5882C100.3 30.2016 101.165 32.5928 101.126 35.762H90.5239C90.6775 36.78 91.0328 37.577 91.5898 38.1533C92.1468 38.7103 92.8959 38.9888 93.8371 38.9888C95.0471 38.9888 95.8634 38.499 96.286 37.5194H100.867C100.521 38.9407 99.6952 40.1028 98.3891 41.0055C97.1023 41.9082 95.5657 42.3596 93.7794 42.3596ZM90.5527 32.9674H96.3724C96.2956 32.0838 95.9979 31.3828 95.4793 30.8642C94.9799 30.3456 94.346 30.0863 93.5778 30.0863C91.9068 30.0863 90.8984 31.0467 90.5527 32.9674Z" fill="#686564"/>
<path d="M104.725 41.9274L99.6257 27.1764H104.466L106.483 33.8317L107.289 36.7992H107.347C107.597 35.8004 107.866 34.8112 108.154 33.8317L110.199 27.1764H114.895L109.796 41.9274H104.725Z" fill="#686564"/>
<path d="M121.144 42.3596C118.762 42.3596 116.851 41.6297 115.411 40.17C113.989 38.6911 113.279 36.8088 113.279 34.5231C113.279 32.2951 113.98 30.4416 115.382 28.9627C116.803 27.4838 118.628 26.7443 120.856 26.7443C122.872 26.7443 124.553 27.3589 125.898 28.5882C127.665 30.2016 128.529 32.5928 128.49 35.762H117.888C118.042 36.78 118.397 37.577 118.954 38.1533C119.511 38.7103 120.26 38.9888 121.201 38.9888C122.411 38.9888 123.228 38.499 123.65 37.5194H128.231C127.885 38.9407 127.06 40.1028 125.753 41.0055C124.467 41.9082 122.93 42.3596 121.144 42.3596ZM117.917 32.9674H123.737C123.66 32.0838 123.362 31.3828 122.844 30.8642C122.344 30.3456 121.71 30.0863 120.942 30.0863C119.271 30.0863 118.263 31.0467 117.917 32.9674Z" fill="#686564"/>
<path d="M128.622 41.9274V27.1764H133.117V29.4813H133.203C134.202 27.7911 135.546 26.946 137.237 26.946C137.678 26.946 137.986 26.9844 138.158 27.0612V31.0947H138.043C136.583 30.8834 135.431 31.1427 134.586 31.8726C133.741 32.5832 133.318 33.726 133.318 35.301V41.9274H128.622Z" fill="#686564"/>
<path d="M144.491 42.3884C142.34 42.3884 140.621 41.9274 139.334 41.0055C138.067 40.0644 137.394 38.7775 137.318 37.1449H141.754C141.927 38.6046 142.83 39.3345 144.463 39.3345C145.173 39.3345 145.73 39.2096 146.134 38.9599C146.556 38.6911 146.767 38.3261 146.767 37.8651C146.767 37.7115 146.748 37.577 146.71 37.4618C146.671 37.3466 146.604 37.2409 146.508 37.1449C146.412 37.0489 146.316 36.9624 146.22 36.8856C146.143 36.8088 146.018 36.7415 145.845 36.6839C145.673 36.6071 145.519 36.5495 145.384 36.5111C145.269 36.4726 145.087 36.4342 144.837 36.3958C144.607 36.3382 144.424 36.2998 144.29 36.2806C144.155 36.2422 143.944 36.2037 143.656 36.1653C143.368 36.1077 143.156 36.0693 143.022 36.0501C142.407 35.9541 141.889 35.858 141.466 35.762C141.044 35.6467 140.573 35.4739 140.055 35.2434C139.555 35.0129 139.142 34.7536 138.816 34.4655C138.508 34.1582 138.249 33.7548 138.038 33.2555C137.827 32.7369 137.721 32.1415 137.721 31.4692C137.721 29.9711 138.326 28.809 139.536 27.9831C140.746 27.1572 142.263 26.7443 144.088 26.7443C146.143 26.7443 147.737 27.1668 148.871 28.012C150.004 28.8379 150.628 29.9903 150.743 31.4692H146.422C146.268 30.3168 145.481 29.7406 144.059 29.7406C143.445 29.7406 142.945 29.8558 142.561 30.0863C142.196 30.3168 142.014 30.6529 142.014 31.0947C142.014 31.2099 142.033 31.3156 142.071 31.4116C142.11 31.5076 142.167 31.5941 142.244 31.6709C142.34 31.7477 142.427 31.8149 142.503 31.8726C142.599 31.9302 142.724 31.9878 142.878 32.0454C143.032 32.103 143.166 32.1511 143.281 32.1895C143.416 32.2279 143.589 32.2663 143.8 32.3047C144.03 32.3431 144.213 32.3815 144.347 32.42C144.501 32.4392 144.703 32.4776 144.952 32.5352C145.202 32.5736 145.404 32.6024 145.557 32.6216C146.21 32.7369 146.748 32.8425 147.171 32.9386C147.593 33.0346 148.083 33.2074 148.64 33.4571C149.216 33.6876 149.668 33.9661 149.994 34.2926C150.321 34.6 150.599 35.0321 150.83 35.5891C151.079 36.1269 151.204 36.7607 151.204 37.4906C151.204 39.0656 150.58 40.2756 149.332 41.1207C148.102 41.9658 146.489 42.3884 144.491 42.3884Z" fill="#686564"/>
<path d="M158.631 42.3596C156.25 42.3596 154.338 41.6297 152.898 40.17C151.477 38.6911 150.766 36.8088 150.766 34.5231C150.766 32.2951 151.467 30.4416 152.869 28.9627C154.29 27.4838 156.115 26.7443 158.343 26.7443C160.36 26.7443 162.04 27.3589 163.385 28.5882C165.152 30.2016 166.016 32.5928 165.978 35.762H155.376C155.529 36.78 155.885 37.577 156.442 38.1533C156.999 38.7103 157.748 38.9888 158.689 38.9888C159.899 38.9888 160.715 38.499 161.138 37.5194H165.719C165.373 38.9407 164.547 40.1028 163.241 41.0055C161.954 41.9082 160.417 42.3596 158.631 42.3596ZM155.404 32.9674H161.224C161.147 32.0838 160.85 31.3828 160.331 30.8642C159.832 30.3456 159.198 30.0863 158.43 30.0863C156.759 30.0863 155.75 31.0467 155.404 32.9674Z" fill="#686564"/>
<path d="M42.7646 45.7415H34.3339C34.1495 45.7415 34 45.592 34 45.4076V21.3389C34 21.167 34.1306 21.0231 34.3018 21.0066L52.7753 19.2241C52.9256 19.2096 53.067 19.2978 53.12 19.4392L59.4349 36.2789C59.4949 36.4388 59.4244 36.6183 59.2716 36.6947L53.1584 39.7513C52.9948 39.8331 52.9275 40.0313 53.0074 40.1958L55.2509 44.8149C55.3923 45.106 55.0783 45.4079 54.793 45.255L42.2613 38.5417C42.02 38.4124 42.0283 38.0634 42.2757 37.9459L51.3402 33.6365C51.5721 33.5262 51.598 33.2064 51.3867 33.0603L39.0416 24.5254C38.7917 24.3526 38.4597 24.5762 38.5258 24.8727L43.0905 45.3349C43.137 45.5435 42.9783 45.7415 42.7646 45.7415Z" fill="#686564"/>
</svg>
