<svg width="200" height="64" viewBox="0 0 200 64" fill="none" xmlns="http://www.w3.org/2000/svg">
<path d="M147.087 47.0558C142.95 47.0558 141.112 45.1025 141.112 41.2726V28.4806H139.848C139.35 28.4806 139.082 28.2508 139.082 27.8678V24.6889C139.082 24.3059 139.35 24.0761 139.848 24.0761H141.112V21.8548C141.112 21.3569 141.342 21.1271 141.725 21.0888L145.67 20.6292C146.053 20.5909 146.282 20.8973 146.282 21.3952V24.0761H148.121C148.619 24.0761 148.887 24.3059 148.887 24.6889V27.8678C148.887 28.2508 148.619 28.4806 148.121 28.4806H146.282V41.5024C146.282 42.4982 146.78 43.0343 147.853 43.0343H148.236C148.733 43.0343 149.002 43.3024 149.002 43.8003V46.2898C149.002 46.7877 148.733 47.0558 148.236 47.0558H147.087Z" fill="#686564"/>
<path d="M128.175 47.4393C125.456 47.4393 124.23 45.9073 124.23 41.6561V24.8426C124.23 24.3448 124.499 24.0767 124.996 24.0767H128.635C129.133 24.0767 129.401 24.3448 129.401 24.8426V41.005C129.401 42.3838 129.86 42.8434 130.856 42.8434C131.852 42.8434 132.312 42.3838 132.312 41.005V24.8426C132.312 24.3448 132.541 24.0767 132.924 24.0767H137.252C137.635 24.0767 137.865 24.3448 137.865 24.8426V46.2903C137.865 46.7882 137.635 47.0563 137.252 47.0563H132.924C132.541 47.0563 132.312 46.7882 132.312 46.2903V44.4519C131.546 46.3669 130.129 47.4393 128.175 47.4393Z" fill="#686564"/>
<path d="M115.969 47.439C111.143 47.439 109.496 45.4857 109.496 40.5068V30.6256C109.496 26.336 111.22 23.6934 116.084 23.6934C120.68 23.6934 122.441 25.6466 122.441 30.6256V32.3873C122.441 32.7703 122.25 33.0001 121.905 33.0001H117.96C117.654 33.0001 117.462 32.7703 117.462 32.3873V29.7447C117.462 28.4808 117.041 27.9829 116.084 27.9829C115.088 27.9829 114.667 28.4808 114.667 29.7447V41.3877C114.667 42.6516 115.088 43.1495 116.084 43.1495C117.041 43.1495 117.462 42.6516 117.462 41.3877V38.7067C117.462 38.2854 117.654 38.0556 117.96 38.0556H121.905C122.25 38.0556 122.441 38.2854 122.441 38.7067V40.5068C122.441 45.4857 120.565 47.439 115.969 47.439Z" fill="#686564"/>
<path d="M99.2417 47.056C98.8587 47.056 98.6289 46.7879 98.6289 46.29V24.8423C98.6289 24.3444 98.8587 24.0764 99.2417 24.0764H103.57C103.953 24.0764 104.182 24.3444 104.182 24.8423V27.8297C104.757 25.3019 105.944 23.6934 107.668 23.6934C108.28 23.6934 108.778 23.77 108.778 24.5742V28.7489C108.778 29.2468 108.51 29.5149 108.012 29.5149H105.753C104.642 29.5149 104.182 30.1277 104.182 31.5064V46.29C104.182 46.7879 103.953 47.056 103.57 47.056H99.2417Z" fill="#686564"/>
<path d="M90.1477 47.439C85.1305 47.439 83.4453 45.2176 83.4453 40.5068V30.9319C83.4453 26.6424 85.1688 23.6934 90.2243 23.6934C95.0117 23.6934 96.7735 26.2977 96.7735 30.9319V34.9151C96.7735 35.9109 96.2373 36.4471 95.2415 36.4471H88.6157V41.5792C88.6157 42.8431 89.037 43.5324 90.2243 43.5324C91.3733 43.5324 91.7946 42.8431 91.7946 41.5792V39.7025C91.7946 39.2812 91.9861 39.0514 92.2925 39.0514H96.2373C96.582 39.0514 96.7735 39.2812 96.7735 39.7025V40.66C96.7735 45.3708 94.9351 47.439 90.1477 47.439ZM88.6157 32.4639H91.7946V29.5532C91.7946 28.2893 91.3733 27.5999 90.2243 27.5999C89.037 27.5999 88.6157 28.2893 88.6157 29.5532V32.4639Z" fill="#686564"/>
<path d="M71.8713 47.0563C71.5266 47.0563 71.3351 46.8265 71.2585 46.4052L67.3136 24.7277C67.237 24.3065 67.4285 24.0767 67.7732 24.0767H71.5649C71.8713 24.0767 72.0628 24.3065 72.1394 24.7277L74.782 42.2689L77.3864 24.7277C77.463 24.3065 77.6545 24.0767 78.0375 24.0767H82.1738C82.5185 24.0767 82.71 24.3065 82.6334 24.7277L78.6886 46.4052C78.612 46.8265 78.4205 47.0563 78.0758 47.0563H71.8713Z" fill="#686564"/>
<path d="M59.1722 47.4393C53.9252 47.4393 51.9336 45.1414 51.9336 39.3965V27.9066C51.9336 22.9277 53.9252 19.8638 59.1722 19.8638C64.4192 19.8638 66.4108 22.1617 66.4108 27.9066V39.3965C66.4108 45.1414 64.4192 47.4393 59.1722 47.4393ZM59.1722 42.4604C60.3595 42.4604 60.8574 41.9242 60.8574 40.4305V26.9875C60.8574 25.4938 60.3595 24.8427 59.1722 24.8427C57.9849 24.8427 57.487 25.4938 57.487 26.9875V40.4305C57.487 41.9242 57.9849 42.4604 59.1722 42.4604Z" fill="#686564"/>
</svg>
