<svg width="200" height="64" viewBox="0 0 200 64" fill="none" xmlns="http://www.w3.org/2000/svg">
<path d="M77.96 42V22.4H85.1C86.78 22.4 92.548 22.848 92.548 28.168C92.548 33.488 86.78 33.908 85.1 33.908H82.104V42H77.96ZM82.104 30.744H84.54C87.06 30.744 88.404 30.128 88.404 28.168C88.404 26.208 87.06 25.564 84.54 25.564H82.104V30.744ZM93.1238 42V28H97.2678V30.632C97.9678 28.756 99.2558 28 100.796 28H102.672V31.164H99.9558C97.7158 31.164 97.2678 32.648 97.2678 35.728V42H93.1238ZM103.13 42V28H107.274V42H103.13ZM102.962 25.76V22.12H107.442V25.76H102.962ZM127.386 33.236C127.386 30.996 126.21 30.716 125.37 30.716C123.69 30.716 122.542 32.088 122.542 35.196V42H118.398V33.236C118.398 30.996 117.222 30.716 116.382 30.716C114.702 30.716 113.554 32.088 113.554 35.196V42H109.41V28H113.554V30.38C114.366 28.56 115.822 27.552 118.09 27.552C119.966 27.552 121.506 28.42 122.178 30.352C123.13 28.532 124.838 27.552 127.078 27.552C129.598 27.552 131.53 29.148 131.53 32.788V42H127.386V33.236ZM139.745 42.448C136.385 42.448 132.661 40.432 132.661 35.084C132.661 29.764 136.385 27.552 139.745 27.552C143.105 27.552 146.409 29.764 146.409 35.084V35.84H136.805C136.805 38.08 137.785 39.284 139.745 39.284C141.705 39.284 142.265 38.136 142.405 37.576L146.409 37.856C146.269 40.656 143.105 42.448 139.745 42.448ZM136.805 33.376H142.657C142.657 31.976 141.705 30.716 139.745 30.716C137.785 30.716 136.805 31.976 136.805 33.376ZM156.202 42L153.318 38.024L150.406 42H145.87L151.022 34.916L146.01 28H150.546L153.318 31.78L156.062 28H160.598L155.586 34.916L160.738 42H156.202Z" fill="#686564"/>
<path d="M46.2756 43.4403H41C39.8954 43.4403 39 42.5449 39 41.4403V35.9421C39 35.4823 39.1584 35.0366 39.4485 34.68L51.6034 19.7379C51.9832 19.271 52.5531 19 53.1549 19H59.1975C60.3021 19 61.1975 19.8954 61.1975 21V28.9403C61.1975 30.0449 62.093 30.9403 63.1975 30.9403H68C69.1046 30.9403 70 31.8357 70 32.9403V42C70 43.1046 69.1046 44 68 44H59.3704C58.2658 44 57.3704 43.1046 57.3704 42V36.5796C57.3704 34.6959 55.0041 33.8567 53.8173 35.3195L47.8287 42.7004C47.4489 43.1685 46.8783 43.4403 46.2756 43.4403Z" fill="#686564"/>
</svg>
