<svg width="200" height="64" viewBox="0 0 200 64" fill="none" xmlns="http://www.w3.org/2000/svg">
<path d="M133.516 38.7945C133.669 38.8424 133.822 38.8758 133.975 38.895C134.128 38.9045 134.281 38.9093 134.434 38.9093C134.817 38.9093 135.185 38.8567 135.539 38.7515C135.893 38.6463 136.223 38.498 136.529 38.3067C136.844 38.1059 137.122 37.8667 137.361 37.5893C137.61 37.3024 137.811 36.9867 137.964 36.6424L140.833 39.5263C140.47 40.0428 140.049 40.5067 139.57 40.918C139.102 41.3293 138.59 41.6784 138.035 41.9653C137.49 42.2523 136.911 42.4675 136.299 42.611C135.697 42.764 135.075 42.8405 134.434 42.8405C133.353 42.8405 132.335 42.6397 131.378 42.238C130.431 41.8362 129.599 41.2767 128.882 40.5593C128.174 39.8419 127.614 38.9906 127.203 38.0054C126.792 37.0107 126.586 35.9202 126.586 34.7342C126.586 33.5194 126.792 32.4099 127.203 31.4056C127.614 30.4012 128.174 29.5452 128.882 28.8373C129.599 28.1295 130.431 27.5795 131.378 27.1874C132.335 26.7952 133.353 26.5991 134.434 26.5991C135.075 26.5991 135.701 26.6756 136.314 26.8287C136.926 26.9817 137.504 27.2017 138.05 27.4887C138.604 27.7756 139.121 28.1295 139.599 28.5504C140.077 28.9617 140.498 29.4256 140.862 29.9421L133.516 38.7945ZM135.524 30.7169C135.343 30.6499 135.161 30.6069 134.979 30.5877C134.807 30.5686 134.625 30.559 134.434 30.559C133.898 30.559 133.391 30.6595 132.913 30.8603C132.445 31.0516 132.033 31.329 131.679 31.6925C131.335 32.056 131.062 32.496 130.862 33.0125C130.661 33.5194 130.56 34.0933 130.56 34.7342C130.56 34.8777 130.565 35.0403 130.575 35.222C130.594 35.4037 130.618 35.5903 130.646 35.7816C130.685 35.9633 130.728 36.1402 130.775 36.3124C130.823 36.4846 130.885 36.6376 130.962 36.7715L135.524 30.7169Z" fill="#686564"/>
<path d="M124.992 42.5533H121.047V20.2588H124.992V42.5533Z" fill="#686564"/>
<path d="M118.634 42.5536H117.687L116.166 40.4445C115.793 40.7793 115.396 41.0949 114.975 41.3914C114.564 41.6784 114.129 41.9319 113.669 42.1519C113.21 42.3623 112.737 42.5297 112.249 42.654C111.771 42.7784 111.283 42.8405 110.786 42.8405C109.705 42.8405 108.686 42.6588 107.73 42.2953C106.783 41.9319 105.95 41.4058 105.233 40.7171C104.525 40.0189 103.966 39.1676 103.554 38.1632C103.143 37.1589 102.938 36.0159 102.938 34.7342C102.938 33.5386 103.143 32.4434 103.554 31.4486C103.966 30.4443 104.525 29.5834 105.233 28.866C105.95 28.1487 106.783 27.5939 107.73 27.2017C108.686 26.8 109.705 26.5991 110.786 26.5991C111.283 26.5991 111.776 26.6613 112.263 26.7856C112.751 26.91 113.225 27.0822 113.684 27.3022C114.143 27.5221 114.578 27.7804 114.989 28.0769C115.41 28.3734 115.802 28.6939 116.166 29.0382L117.687 27.2161H118.634V42.5536ZM114.688 34.7342C114.688 34.1985 114.583 33.682 114.372 33.1846C114.172 32.6777 113.894 32.2329 113.54 31.8503C113.186 31.4582 112.77 31.1473 112.292 30.9177C111.823 30.6786 111.321 30.559 110.786 30.559C110.25 30.559 109.743 30.6499 109.265 30.8316C108.796 31.0134 108.385 31.2812 108.031 31.6351C107.687 31.989 107.414 32.429 107.213 32.9551C107.012 33.4716 106.912 34.0646 106.912 34.7342C106.912 35.4037 107.012 36.0015 107.213 36.5276C107.414 37.0441 107.687 37.4793 108.031 37.8333C108.385 38.1872 108.796 38.455 109.265 38.6367C109.743 38.8185 110.25 38.9093 110.786 38.9093C111.321 38.9093 111.823 38.7945 112.292 38.565C112.77 38.3259 113.186 38.015 113.54 37.6324C113.894 37.2402 114.172 36.7954 114.372 36.2981C114.583 35.7911 114.688 35.2698 114.688 34.7342Z" fill="#686564"/>
<path d="M102.651 30.2434L99.7813 33.1273C99.6378 32.7255 99.4417 32.3668 99.1931 32.0512C98.9444 31.726 98.6622 31.4534 98.3465 31.2334C98.0405 31.0134 97.7057 30.846 97.3422 30.7312C96.9787 30.6164 96.6057 30.559 96.2231 30.559C95.6875 30.559 95.1805 30.669 94.7023 30.889C94.2336 31.109 93.8223 31.4199 93.4684 31.8216C93.124 32.2138 92.8514 32.6825 92.6506 33.2277C92.4497 33.7729 92.3493 34.3755 92.3493 35.0355C92.3493 35.5711 92.4497 36.0733 92.6506 36.542C92.8514 37.0107 93.124 37.422 93.4684 37.7759C93.8223 38.1298 94.2336 38.4072 94.7023 38.608C95.1805 38.8089 95.6875 38.9093 96.2231 38.9093C96.6057 38.9093 96.974 38.8567 97.3279 38.7515C97.6818 38.6463 98.0118 38.498 98.3179 38.3067C98.6335 38.1059 98.9109 37.8667 99.15 37.5893C99.3987 37.3024 99.5996 36.9867 99.7526 36.6424L102.622 39.5263C102.259 40.0428 101.838 40.5067 101.36 40.918C100.891 41.3293 100.379 41.6784 99.8243 41.9653C99.2791 42.2523 98.7005 42.4675 98.0883 42.611C97.4857 42.764 96.864 42.8405 96.2231 42.8405C95.1423 42.8405 94.1236 42.6397 93.1671 42.238C92.2201 41.8267 91.388 41.2671 90.6706 40.5593C89.9628 39.8515 89.4032 39.0241 88.9919 38.0772C88.5806 37.1302 88.375 36.1163 88.375 35.0355C88.375 33.859 88.5806 32.759 88.9919 31.7355C89.4032 30.7121 89.9628 29.8225 90.6706 29.0669C91.388 28.3017 92.2201 27.6991 93.1671 27.2591C94.1236 26.8191 95.1423 26.5991 96.2231 26.5991C96.864 26.5991 97.4905 26.6804 98.1026 26.843C98.7244 27.0056 99.3126 27.2448 99.8674 27.5604C100.432 27.8665 100.948 28.2443 101.417 28.6939C101.895 29.1434 102.306 29.6599 102.651 30.2434Z" fill="#686564"/>
<path d="M65.5 23.347C65.5 22.212 65.7168 21.1471 66.1504 20.1523C66.584 19.1575 67.1707 18.2903 67.9104 17.5506C68.6628 16.7982 69.5364 16.2051 70.5312 15.7715C71.526 15.3379 72.5909 15.1211 73.7259 15.1211H141V20.6114H73.7259C73.3433 20.6114 72.9862 20.6816 72.6546 20.8219C72.3231 20.9621 72.0297 21.1598 71.7747 21.4149C71.5323 21.6572 71.341 21.9442 71.2008 22.2757C71.0605 22.6073 70.9903 22.9644 70.9903 23.347C70.9903 23.7296 71.0605 24.0931 71.2008 24.4374C71.341 24.769 71.5323 25.0624 71.7747 25.3174C72.0297 25.5597 72.3231 25.751 72.6546 25.8913C72.9862 26.0316 73.3433 26.1018 73.7259 26.1018H79.2163C80.3513 26.1018 81.4162 26.3186 82.411 26.7522C83.4185 27.173 84.2921 27.7597 85.0318 28.5121C85.7842 29.2518 86.3709 30.1254 86.7918 31.133C87.2254 32.1277 87.4422 33.1926 87.4422 34.3277C87.4422 35.4627 87.2254 36.5276 86.7918 37.5224C86.3709 38.5172 85.7842 39.3908 85.0318 40.1432C84.2921 40.8829 83.4185 41.4696 82.411 41.9032C81.4162 42.3368 80.3513 42.5536 79.2163 42.5536H67.0304V37.0633H79.2163C79.5989 37.0633 79.956 36.9931 80.2875 36.8528C80.6191 36.7126 80.9061 36.5213 81.1484 36.2789C81.4035 36.0239 81.6011 35.7306 81.7414 35.399C81.8817 35.0674 81.9519 34.7103 81.9519 34.3277C81.9519 33.9451 81.8817 33.588 81.7414 33.2564C81.6011 32.9248 81.4035 32.6379 81.1484 32.3955C80.9061 32.1405 80.6191 31.9428 80.2875 31.8025C79.956 31.6622 79.5989 31.5921 79.2163 31.5921H73.7259C72.5909 31.5921 71.526 31.3753 70.5312 30.9417C69.5364 30.508 68.6628 29.9214 67.9104 29.1817C67.1707 28.4292 66.584 27.5556 66.1504 26.5609C65.7168 25.5534 65.5 24.4821 65.5 23.347Z" fill="#686564"/>
</svg>
