<svg width="200" height="64" viewBox="0 0 200 64" fill="none" xmlns="http://www.w3.org/2000/svg">
<path d="M163.537 45.6613C158.584 45.6613 155.423 43.2499 155.293 39.7305L159.627 39.4047C159.757 40.9688 161.126 41.979 163.505 41.979C165.395 41.979 166.503 41.3273 166.503 40.3171C166.503 37.2865 156.108 40.0564 156.108 33.5065C156.108 30.1175 158.877 28.3252 163.016 28.3252C167.448 28.3252 170.185 30.4107 170.315 33.5065L165.949 33.8323C165.818 32.6592 164.873 32.0075 163.081 32.0075C161.452 32.0075 160.605 32.5615 160.605 33.3435C160.605 36.0808 171 33.6042 171 40.1542C171 43.5758 168.165 45.6613 163.537 45.6613Z" fill="#686564"/>
<path d="M144.977 45.14V28.8467H149.376V32.2683C150.06 30.0524 151.266 28.8467 152.993 28.8467H155.991V32.529H153.319C150.419 32.529 149.376 34.0605 149.376 38.362V45.14H144.977Z" fill="#686564"/>
<path d="M135.943 45.6613C130.696 45.6613 127.145 42.1745 127.145 36.9607C127.145 31.9097 130.566 28.3252 135.324 28.3252C140.114 28.3252 143.47 31.9097 143.47 37.0584V38.2967H131.674C131.674 40.48 133.303 41.979 135.682 41.979C137.312 41.979 138.55 41.2621 139.039 40.0238L143.47 40.3497C142.982 43.5432 140.016 45.6613 135.943 45.6613ZM138.941 35.1032C138.941 33.2458 137.475 32.0075 135.324 32.0075C133.173 32.0075 131.674 33.2784 131.674 35.1032H138.941Z" fill="#686564"/>
<path d="M121.385 35.592C121.385 33.2458 120.505 32.0075 118.876 32.0075C116.791 32.0075 115.422 34.0605 115.422 37.2214V45.1399H111.023V35.592C111.023 33.2458 110.143 32.0075 108.514 32.0075C106.428 32.0075 105.059 34.0605 105.059 37.2214V45.1399H100.66V28.8466H105.059V31.5513C106.07 29.5309 107.862 28.3252 110.175 28.3252C112.587 28.3252 114.216 29.6287 114.966 32.0401C116.008 29.759 118.029 28.3252 120.538 28.3252C123.894 28.3252 125.784 30.867 125.784 35.3965V45.1399H121.385V35.592Z" fill="#686564"/>
<path d="M89.9143 45.6613C85.3196 45.6613 82.2891 42.5656 82.2891 37.8731C82.2891 32.4311 86.2321 28.3252 91.4785 28.3252C96.0732 28.3252 99.1364 31.4535 99.1364 36.146C99.1364 41.588 95.1608 45.6613 89.9143 45.6613ZM90.2076 41.979C92.782 41.979 94.672 39.535 94.672 36.1786C94.672 33.5391 93.4011 32.0075 91.2504 32.0075C88.6761 32.0075 86.7534 34.4841 86.7534 37.8079C86.7534 40.3823 88.0895 41.979 90.2076 41.979Z" fill="#686564"/>
<path d="M72.2893 45.6613C67.6946 45.6613 64.6641 42.5656 64.6641 37.8731C64.6641 32.4311 68.607 28.3252 73.8535 28.3252C78.4482 28.3252 81.5114 31.4535 81.5114 36.146C81.5114 41.588 77.5358 45.6613 72.2893 45.6613ZM72.5826 41.979C75.157 41.979 77.047 39.535 77.047 36.1786C77.047 33.5391 75.7761 32.0075 73.6254 32.0075C71.051 32.0075 69.1284 34.4841 69.1284 37.8079C69.1284 40.3823 70.4645 41.979 72.5826 41.979Z" fill="#686564"/>
<path d="M47.1289 45.1398V22.3291H53.6462C58.9905 22.3291 62.4772 24.8057 62.4772 28.6509C62.4772 30.9972 61.2063 32.6917 59.186 33.3108C62.021 33.93 63.7807 35.8852 63.7807 38.6224C63.7807 42.5328 60.2287 45.1398 54.9497 45.1398H47.1289ZM54.9497 41.4575C57.6544 41.4575 59.2837 40.3169 59.2837 38.4269C59.2837 36.5369 57.6544 35.3964 54.9497 35.3964H51.4629V41.4575H54.9497ZM53.6462 31.7467C56.4161 31.7467 57.9803 30.7039 57.9803 28.879C57.9803 27.0542 56.4161 26.0114 53.6462 26.0114H51.4629V31.7467H53.6462Z" fill="#686564"/>
<path d="M91.0507 33.9717L91.8388 36.1015L93.9686 36.8896L91.8388 37.6777L91.0507 39.8075L90.2626 37.6777L88.1328 36.8896L90.2626 36.1015L91.0507 33.9717Z" fill="#686564"/>
<path d="M73.5429 33.9717L74.331 36.1015L76.4608 36.8896L74.331 37.6777L73.5429 39.8075L72.7548 37.6777L70.625 36.8896L72.7548 36.1015L73.5429 33.9717Z" fill="#686564"/>
</svg>
