<svg width="438" height="60" viewBox="0 0 438 60" fill="none" xmlns="http://www.w3.org/2000/svg">
<mask id="mask0_716_7" style="mask-type:alpha" maskUnits="userSpaceOnUse" x="0" y="0" width="438" height="60">
<rect width="438" height="60" fill="#F6F5F4"/>
</mask>
<g mask="url(#mask0_716_7)">
<path d="M7.58301 -184.623L-70.3215 106.121" stroke="#E3E0DD"/>
<path d="M13.3789 -183.07L-64.5256 107.673" stroke="#E3E0DD"/>
<path d="M19.1738 -181.518L-58.7307 109.226" stroke="#E3E0DD"/>
<path d="M24.9697 -179.964L-52.9348 110.779" stroke="#E3E0DD"/>
<path d="M30.7656 -178.412L-47.1389 112.332" stroke="#E3E0DD"/>
<path d="M36.5605 -176.859L-41.344 113.885" stroke="#E3E0DD"/>
<path d="M42.3564 -175.306L-35.5481 115.438" stroke="#E3E0DD"/>
<path d="M48.1514 -173.753L-29.7532 116.991" stroke="#E3E0DD"/>
<path d="M53.9473 -172.2L-23.9573 118.543" stroke="#E3E0DD"/>
<path d="M59.7432 -170.647L-18.1614 120.097" stroke="#E3E0DD"/>
<path d="M65.5381 -169.094L-12.3664 121.649" stroke="#E3E0DD"/>
<path d="M71.334 -167.541L-6.57055 123.203" stroke="#E3E0DD"/>
<path d="M77.1299 -165.988L-0.774649 124.755" stroke="#E3E0DD"/>
<path d="M82.9248 -164.436L5.02027 126.308" stroke="#E3E0DD"/>
<path d="M88.7207 -162.882L10.8162 127.861" stroke="#E3E0DD"/>
<path d="M94.5166 -161.33L16.6121 129.414" stroke="#E3E0DD"/>
<path d="M100.312 -159.777L22.407 130.967" stroke="#E3E0DD"/>
<path d="M106.107 -158.224L28.2029 132.52" stroke="#E3E0DD"/>
<path d="M111.903 -156.671L33.9988 134.073" stroke="#E3E0DD"/>
<path d="M117.698 -155.118L39.7937 135.626" stroke="#E3E0DD"/>
<path d="M123.494 -153.565L45.5896 137.179" stroke="#E3E0DD"/>
<path d="M129.29 -152.012L51.3855 138.731" stroke="#E3E0DD"/>
<path d="M135.085 -150.459L57.1804 140.285" stroke="#E3E0DD"/>
<path d="M140.881 -148.906L62.9763 141.837" stroke="#E3E0DD"/>
<path d="M146.676 -147.354L68.7712 143.39" stroke="#E3E0DD"/>
<path d="M152.472 -145.8L74.5671 144.943" stroke="#E3E0DD"/>
<path d="M158.268 -144.248L80.363 146.496" stroke="#E3E0DD"/>
<path d="M164.062 -142.695L86.158 148.049" stroke="#E3E0DD"/>
<path d="M169.858 -141.142L91.9539 149.602" stroke="#E3E0DD"/>
<path d="M175.654 -139.589L97.7498 151.155" stroke="#E3E0DD"/>
<path d="M181.449 -138.036L103.545 152.708" stroke="#E3E0DD"/>
<path d="M187.245 -136.483L109.341 154.261" stroke="#E3E0DD"/>
<path d="M193.041 -134.93L115.136 155.813" stroke="#E3E0DD"/>
<path d="M198.836 -133.377L120.931 157.367" stroke="#E3E0DD"/>
<path d="M204.632 -131.824L126.727 158.919" stroke="#E3E0DD"/>
<path d="M210.428 -130.271L132.523 160.472" stroke="#E3E0DD"/>
<path d="M216.223 -128.718L138.318 162.025" stroke="#E3E0DD"/>
<path d="M222.019 -127.166L144.114 163.578" stroke="#E3E0DD"/>
<path d="M227.814 -125.612L149.91 165.131" stroke="#E3E0DD"/>
<path d="M233.609 -124.06L155.705 166.684" stroke="#E3E0DD"/>
<path d="M239.405 -122.507L161.501 168.237" stroke="#E3E0DD"/>
<path d="M245.201 -120.954L167.297 169.79" stroke="#E3E0DD"/>
<path d="M250.996 -119.401L173.092 171.343" stroke="#E3E0DD"/>
<path d="M256.792 -117.848L178.887 172.896" stroke="#E3E0DD"/>
<path d="M262.587 -116.295L184.682 174.449" stroke="#E3E0DD"/>
<path d="M268.383 -114.742L190.478 176.001" stroke="#E3E0DD"/>
<path d="M274.179 -113.189L196.274 177.554" stroke="#E3E0DD"/>
<path d="M279.974 -111.636L202.069 179.107" stroke="#E3E0DD"/>
<path d="M285.77 -110.083L207.865 180.66" stroke="#E3E0DD"/>
<path d="M291.565 -108.53L213.661 182.213" stroke="#E3E0DD"/>
<path d="M297.36 -106.978L219.456 183.766" stroke="#E3E0DD"/>
<path d="M303.156 -105.425L225.252 185.319" stroke="#E3E0DD"/>
<path d="M308.952 -103.872L231.048 186.872" stroke="#E3E0DD"/>
<path d="M314.747 -102.319L236.843 188.425" stroke="#E3E0DD"/>
<path d="M320.543 -100.766L242.638 189.978" stroke="#E3E0DD"/>
<path d="M326.339 -99.2129L248.434 191.531" stroke="#E3E0DD"/>
<path d="M332.134 -97.6602L254.229 193.084" stroke="#E3E0DD"/>
<path d="M337.93 -96.1069L260.025 194.637" stroke="#E3E0DD"/>
<path d="M343.726 -94.5542L265.821 196.189" stroke="#E3E0DD"/>
<path d="M349.521 -93.0015L271.616 197.742" stroke="#E3E0DD"/>
<path d="M355.316 -91.4482L277.412 199.295" stroke="#E3E0DD"/>
<path d="M361.111 -89.8955L283.207 200.848" stroke="#E3E0DD"/>
<path d="M366.907 -88.3428L289.003 202.401" stroke="#E3E0DD"/>
<path d="M372.703 -86.7896L294.799 203.954" stroke="#E3E0DD"/>
<path d="M378.498 -85.2368L300.594 205.507" stroke="#E3E0DD"/>
<path d="M384.294 -83.6841L306.389 207.06" stroke="#E3E0DD"/>
<path d="M390.09 -82.1309L312.185 208.613" stroke="#E3E0DD"/>
<path d="M395.885 -80.5781L317.98 210.166" stroke="#E3E0DD"/>
<path d="M401.681 -79.0249L323.776 211.719" stroke="#E3E0DD"/>
<path d="M407.477 -77.4722L329.572 213.272" stroke="#E3E0DD"/>
<path d="M413.271 -75.9194L335.367 214.824" stroke="#E3E0DD"/>
<path d="M419.067 -74.3662L341.163 216.377" stroke="#E3E0DD"/>
<path d="M424.863 -72.8135L346.959 217.93" stroke="#E3E0DD"/>
<path d="M430.658 -71.2607L352.754 219.483" stroke="#E3E0DD"/>
<path d="M436.454 -69.7075L358.55 221.036" stroke="#E3E0DD"/>
<path d="M442.25 -68.1548L364.345 222.589" stroke="#E3E0DD"/>
<path d="M448.045 -66.6016L370.14 224.142" stroke="#E3E0DD"/>
<path d="M453.841 -65.0488L375.936 225.695" stroke="#E3E0DD"/>
<path d="M459.636 -63.4961L381.731 227.248" stroke="#E3E0DD"/>
<path d="M465.432 -61.9429L387.527 228.801" stroke="#E3E0DD"/>
<path d="M471.228 -60.3901L393.323 230.354" stroke="#E3E0DD"/>
<path d="M477.022 -58.8374L399.118 231.906" stroke="#E3E0DD"/>
<path d="M482.818 -57.2842L404.914 233.459" stroke="#E3E0DD"/>
<path d="M488.614 -55.7314L410.71 235.012" stroke="#E3E0DD"/>
<path d="M494.409 -54.1787L416.505 236.565" stroke="#E3E0DD"/>
<path d="M500.205 -52.6255L422.301 238.118" stroke="#E3E0DD"/>
<path d="M506.001 -51.0728L428.096 239.671" stroke="#E3E0DD"/>
<path d="M511.796 -49.5195L433.891 241.224" stroke="#E3E0DD"/>
</g>
</svg>
