<svg width="28" height="28" viewBox="0 0 28 28" fill="none" xmlns="http://www.w3.org/2000/svg">
<path d="M25.2263 5.39879C24.9013 5.0737 24.5154 4.81582 24.0907 4.63987C23.666 4.46393 23.2109 4.37338 22.7512 4.37338C22.2915 4.37338 21.8363 4.46393 21.4116 4.63987C20.9869 4.81582 20.601 5.0737 20.276 5.39879C20.0557 5.61895 19.8659 5.86762 19.7116 6.13816L16.6251 5.29597C16.6346 4.59965 16.4362 3.91631 16.0552 3.33336C15.6743 2.75041 15.1281 2.29436 14.4865 2.02355C13.8449 1.75273 13.1371 1.67946 12.4537 1.81311C11.7703 1.94675 11.1422 2.28124 10.6499 2.77379C10.1243 3.30068 9.77989 3.98116 9.66664 4.71675C9.55338 5.45234 9.6771 6.20489 10.0199 6.8655L6.30773 10.2069C5.63421 9.76176 4.82769 9.56272 4.02441 9.64343C3.22112 9.72413 2.47031 10.0796 1.89882 10.6499C1.25982 11.284 0.889749 12.14 0.865526 13.04C0.841304 13.9399 1.16479 14.8146 1.76875 15.4822C2.37272 16.1498 3.21071 16.559 4.10857 16.6248C5.00644 16.6906 5.89511 16.4078 6.58991 15.8353L14.2462 21.4528C14.0011 22.0664 13.9348 22.7368 14.0548 23.3865C14.1748 24.0362 14.4762 24.6387 14.9242 25.1243C15.3722 25.6098 15.9485 25.9587 16.5865 26.1305C17.2245 26.3023 17.898 26.29 18.5293 26.095C19.1606 25.9001 19.7238 25.5305 20.1538 25.0289C20.5838 24.5273 20.863 23.9142 20.9593 23.2606C21.0555 22.6069 20.9647 21.9394 20.6975 21.3352C20.4303 20.731 19.9975 20.2147 19.4491 19.8461L22.4449 11.3597C22.5455 11.3685 22.6462 11.3728 22.7468 11.3728C23.4389 11.3727 24.1154 11.1675 24.6908 10.7829C25.2663 10.3984 25.7148 9.85191 25.9797 9.21253C26.2446 8.57314 26.314 7.86957 26.1792 7.19075C26.0443 6.51192 25.7112 5.88833 25.2219 5.39879H25.2263ZM11.8826 4.01082C12.1274 3.76627 12.4392 3.59979 12.7786 3.53243C13.118 3.46506 13.4698 3.49983 13.7895 3.63234C14.1091 3.76485 14.3823 3.98915 14.5745 4.2769C14.7667 4.56464 14.8693 4.90291 14.8693 5.24894C14.8693 5.59498 14.7667 5.93324 14.5745 6.22099C14.3823 6.50873 14.1091 6.73303 13.7895 6.86555C13.4698 6.99806 13.118 7.03282 12.7786 6.96546C12.4392 6.89809 12.1274 6.73161 11.8826 6.48707C11.7201 6.32425 11.5914 6.13102 11.5037 5.91842C11.416 5.70581 11.3711 5.47801 11.3715 5.24803C11.3719 5.01806 11.4176 4.79042 11.5061 4.57812C11.5945 4.36583 11.7239 4.17306 11.8869 4.01082H11.8826ZM3.13257 14.3632C2.96986 14.2006 2.84078 14.0076 2.75272 13.7952C2.66465 13.5827 2.61932 13.355 2.61932 13.125C2.61932 12.8951 2.66465 12.6673 2.75272 12.4549C2.84078 12.2424 2.96986 12.0494 3.13257 11.8869C3.37739 11.6424 3.68921 11.4759 4.02863 11.4085C4.36804 11.3412 4.71981 11.3759 5.03946 11.5084C5.35912 11.6409 5.63232 11.8652 5.82453 12.153C6.01673 12.4407 6.11932 12.779 6.11932 13.125C6.11932 13.4711 6.01673 13.8093 5.82453 14.0971C5.63232 14.3848 5.35912 14.6091 5.03946 14.7416C4.71981 14.8741 4.36804 14.9089 4.02863 14.8416C3.68921 14.7742 3.37739 14.6077 3.13257 14.3632ZM18.7349 23.9882C18.4067 24.3164 17.9615 24.5008 17.4973 24.5008C17.0332 24.5008 16.588 24.3164 16.2598 23.9882C15.9315 23.6599 15.7471 23.2148 15.7471 22.7506C15.7471 22.2864 15.9315 21.8412 16.2598 21.513C16.4223 21.3505 16.6152 21.2216 16.8276 21.1336C17.0399 21.0457 17.2675 21.0004 17.4973 21.0004C17.7272 21.0004 17.9548 21.0457 18.1671 21.1336C18.3795 21.2216 18.5724 21.3505 18.7349 21.513C18.8974 21.6755 19.0264 21.8685 19.1143 22.0808C19.2023 22.2932 19.2475 22.5207 19.2475 22.7506C19.2475 22.9804 19.2023 23.208 19.1143 23.4204C19.0264 23.6327 18.8974 23.8256 18.7349 23.9882ZM17.7998 19.2653C16.8924 19.1863 15.99 19.4641 15.2841 20.0397L7.62788 14.4222C7.81342 13.9542 7.89635 13.4517 7.87107 12.9489C7.84579 12.446 7.71288 11.9545 7.48132 11.5074L11.1946 8.16597C11.5941 8.43075 12.0437 8.61065 12.5155 8.69454C12.9874 8.77844 13.4715 8.76453 13.9377 8.65368C14.404 8.54283 14.8425 8.3374 15.2261 8.05013C15.6098 7.76285 15.9303 7.39986 16.1679 6.98363L19.2501 7.82691C19.2417 8.40873 19.3786 8.98345 19.6482 9.49908C19.9179 10.0147 20.3118 10.455 20.7944 10.78L17.7998 19.2653ZM23.986 9.11097C23.826 9.2839 23.6327 9.42273 23.4178 9.51916C23.2028 9.61559 22.9706 9.66762 22.7351 9.67214C22.4995 9.67665 22.2655 9.63357 22.047 9.54545C21.8285 9.45734 21.63 9.32601 21.4635 9.15935C21.297 8.99269 21.1659 8.79412 21.0779 8.57555C20.99 8.35698 20.9471 8.1229 20.9519 7.88736C20.9566 7.65181 21.0088 7.41965 21.1054 7.20478C21.2021 6.98991 21.3411 6.79676 21.5141 6.63691C21.8424 6.30868 22.2875 6.12429 22.7517 6.12429C23.2159 6.12429 23.6611 6.30868 23.9893 6.63691C24.3175 6.96514 24.5019 7.41031 24.5019 7.87449C24.5019 8.33867 24.3175 8.78384 23.9893 9.11207L23.986 9.11097Z" fill="#201E1D"/>
</svg>
