<svg width="28" height="28" viewBox="0 0 28 28" fill="none" xmlns="http://www.w3.org/2000/svg">
<path d="M13.3806 11.994C13.4619 12.0754 13.5584 12.1399 13.6646 12.1839C13.7709 12.228 13.8847 12.2506 13.9997 12.2506C14.1147 12.2506 14.2286 12.228 14.3348 12.1839C14.441 12.1399 14.5375 12.0754 14.6188 11.994L18.9938 7.61902C19.0751 7.53776 19.1397 7.44125 19.1837 7.33503C19.2277 7.22881 19.2504 7.11494 19.2504 6.99996C19.2504 6.88497 19.2277 6.77111 19.1837 6.66488C19.1397 6.55866 19.0751 6.46216 18.9938 6.38089L14.6188 2.00589C14.5375 1.92454 14.441 1.86 14.3348 1.81597C14.2286 1.77193 14.1147 1.74927 13.9997 1.74927C13.8847 1.74927 13.7709 1.77193 13.6646 1.81597C13.5584 1.86 13.4619 1.92454 13.3806 2.00589L9.00565 6.38089C8.92429 6.46216 8.85976 6.55866 8.81572 6.66488C8.77169 6.77111 8.74902 6.88497 8.74902 6.99996C8.74902 7.11494 8.77169 7.22881 8.81572 7.33503C8.85976 7.44125 8.92429 7.53776 9.00565 7.61902L13.3806 11.994ZM13.9997 3.86199L17.1377 6.99996L13.9997 10.1379L10.8617 6.99996L13.9997 3.86199ZM14.6188 16.0026C14.5375 15.9213 14.441 15.8567 14.3348 15.8127C14.2286 15.7687 14.1147 15.746 13.9997 15.746C13.8847 15.746 13.7709 15.7687 13.6646 15.8127C13.5584 15.8567 13.4619 15.9213 13.3806 16.0026L9.00565 20.3776C8.92429 20.4589 8.85976 20.5554 8.81572 20.6616C8.77169 20.7678 8.74902 20.8817 8.74902 20.9967C8.74902 21.1117 8.77169 21.2255 8.81572 21.3317C8.85976 21.438 8.92429 21.5345 9.00565 21.6157L13.3806 25.9907C13.4619 26.0721 13.5584 26.1366 13.6646 26.1807C13.7709 26.2247 13.8847 26.2474 13.9997 26.2474C14.1147 26.2474 14.2286 26.2247 14.3348 26.1807C14.441 26.1366 14.5375 26.0721 14.6188 25.9907L18.9938 21.6157C19.0751 21.5345 19.1397 21.438 19.1837 21.3317C19.2277 21.2255 19.2504 21.1117 19.2504 20.9967C19.2504 20.8817 19.2277 20.7678 19.1837 20.6616C19.1397 20.5554 19.0751 20.4589 18.9938 20.3776L14.6188 16.0026ZM13.9997 24.1379L10.8617 21L13.9997 17.862L17.1377 21L13.9997 24.1379ZM25.9938 13.3809L21.6188 9.00589C21.5375 8.92454 21.441 8.86 21.3348 8.81597C21.2286 8.77193 21.1147 8.74927 20.9997 8.74927C20.8847 8.74927 20.7709 8.77193 20.6646 8.81597C20.5584 8.86 20.4619 8.92454 20.3806 9.00589L16.0056 13.3809C15.9243 13.4622 15.8598 13.5587 15.8157 13.6649C15.7717 13.7711 15.749 13.885 15.749 14C15.749 14.1149 15.7717 14.2288 15.8157 14.335C15.8598 14.4413 15.9243 14.5378 16.0056 14.619L20.3806 18.994C20.4619 19.0754 20.5584 19.1399 20.6646 19.1839C20.7709 19.228 20.8847 19.2506 20.9997 19.2506C21.1147 19.2506 21.2286 19.228 21.3348 19.1839C21.441 19.1399 21.5375 19.0754 21.6188 18.994L25.9938 14.619C26.0751 14.5378 26.1397 14.4413 26.1837 14.335C26.2277 14.2288 26.2504 14.1149 26.2504 14C26.2504 13.885 26.2277 13.7711 26.1837 13.6649C26.1397 13.5587 26.0751 13.4622 25.9938 13.3809ZM20.9997 17.1379L17.8617 14L20.9997 10.862L24.1377 14L20.9997 17.1379ZM11.9938 13.3809L7.61877 9.00589C7.53751 8.92454 7.44101 8.86 7.33478 8.81597C7.22856 8.77193 7.1147 8.74927 6.99971 8.74927C6.88472 8.74927 6.77086 8.77193 6.66464 8.81597C6.55842 8.86 6.46191 8.92454 6.38065 9.00589L2.00565 13.3809C1.92429 13.4622 1.85976 13.5587 1.81572 13.6649C1.77169 13.7711 1.74902 13.885 1.74902 14C1.74902 14.1149 1.77169 14.2288 1.81572 14.335C1.85976 14.4413 1.92429 14.5378 2.00565 14.619L6.38065 18.994C6.46191 19.0754 6.55842 19.1399 6.66464 19.1839C6.77086 19.228 6.88472 19.2506 6.99971 19.2506C7.1147 19.2506 7.22856 19.228 7.33478 19.1839C7.44101 19.1399 7.53751 19.0754 7.61877 18.994L11.9938 14.619C12.0751 14.5378 12.1397 14.4413 12.1837 14.335C12.2277 14.2288 12.2504 14.1149 12.2504 14C12.2504 13.885 12.2277 13.7711 12.1837 13.6649C12.1397 13.5587 12.0751 13.4622 11.9938 13.3809ZM6.99971 17.1379L3.86174 14L6.99971 10.862L10.1377 14L6.99971 17.1379Z" fill="#201E1D"/>
</svg>
