<svg width="28" height="28" viewBox="0 0 28 28" fill="none" xmlns="http://www.w3.org/2000/svg">
<path d="M23.6023 12.9249C23.5692 12.7846 23.5019 12.6547 23.4065 12.5467C23.3111 12.4387 23.1905 12.356 23.0554 12.3058L16.7543 9.9422L18.3578 1.92173C18.3941 1.73538 18.3688 1.54227 18.2857 1.37155C18.2027 1.20083 18.0663 1.06177 17.8973 0.975332C17.7282 0.888898 17.5357 0.859789 17.3486 0.892399C17.1616 0.925008 16.9903 1.01757 16.8604 1.15611L4.61044 14.2811C4.51094 14.3859 4.43897 14.5138 4.40094 14.6532C4.36292 14.7927 4.36003 14.9394 4.39252 15.0802C4.42502 15.221 4.4919 15.3516 4.58719 15.4603C4.68247 15.569 4.80319 15.6523 4.93856 15.703L11.2418 18.0666L9.64278 26.0783C9.60647 26.2646 9.63176 26.4578 9.71483 26.6285C9.7979 26.7992 9.93424 26.9383 10.1033 27.0247C10.2723 27.1111 10.4649 27.1402 10.6519 27.1076C10.839 27.075 11.0103 26.9825 11.1401 26.8439L23.3901 13.7189C23.4878 13.6141 23.5583 13.4868 23.5953 13.3484C23.6323 13.2099 23.6347 13.0645 23.6023 12.9249ZM11.9626 23.4063L13.1078 17.6772C13.1488 17.474 13.1163 17.2629 13.0161 17.0814C12.916 16.8999 12.7547 16.7599 12.5609 16.6863L6.78153 14.5152L16.0368 4.59923L14.8928 10.3283C14.8518 10.5315 14.8843 10.7426 14.9844 10.9241C15.0846 11.1056 15.2459 11.2456 15.4397 11.3192L21.2147 13.4849L11.9626 23.4063Z" fill="#201E1D"/>
</svg>
