<svg width="1076" height="500" viewBox="0 0 1076 500" fill="none" xmlns="http://www.w3.org/2000/svg">
<mask id="mask0_600_5" style="mask-type:alpha" maskUnits="userSpaceOnUse" x="0" y="0" width="1076" height="500">
<rect width="1076" height="500" fill="#F6F5F4"/>
</mask>
<g mask="url(#mask0_600_5)">
<path d="M4.78516 -356.372L-221.009 486.302" stroke="#201E1D"/>
<path d="M10.582 -354.819L-215.212 487.855" stroke="#201E1D"/>
<path d="M16.3789 -353.267L-209.415 489.407" stroke="#201E1D"/>
<path d="M22.1719 -351.714L-203.622 490.96" stroke="#201E1D"/>
<path d="M27.9688 -350.161L-197.825 492.513" stroke="#201E1D"/>
<path d="M33.7656 -348.607L-192.028 494.067" stroke="#201E1D"/>
<path d="M39.5586 -347.054L-186.235 495.619" stroke="#201E1D"/>
<path d="M45.3555 -345.502L-180.438 497.172" stroke="#201E1D"/>
<path d="M51.1523 -343.949L-174.641 498.724" stroke="#201E1D"/>
<path d="M56.9453 -342.396L-168.848 500.277" stroke="#201E1D"/>
<path d="M62.7422 -340.844L-163.052 501.829" stroke="#201E1D"/>
<path d="M68.5391 -339.29L-157.255 503.384" stroke="#201E1D"/>
<path d="M74.332 -337.737L-151.462 504.937" stroke="#201E1D"/>
<path d="M80.1289 -336.185L-145.665 506.489" stroke="#201E1D"/>
<path d="M85.9258 -334.632L-139.868 508.042" stroke="#201E1D"/>
<path d="M91.7188 -333.079L-134.075 509.595" stroke="#201E1D"/>
<path d="M97.5156 -331.525L-128.278 511.149" stroke="#201E1D"/>
<path d="M103.309 -329.972L-122.485 512.701" stroke="#201E1D"/>
<path d="M109.105 -328.42L-116.688 514.254" stroke="#201E1D"/>
<path d="M114.902 -326.867L-110.891 515.806" stroke="#201E1D"/>
<path d="M120.695 -325.314L-105.098 517.359" stroke="#201E1D"/>
<path d="M126.492 -323.762L-99.3015 518.912" stroke="#201E1D"/>
<path d="M132.289 -322.208L-93.5047 520.466" stroke="#201E1D"/>
<path d="M138.082 -320.655L-87.7117 522.019" stroke="#201E1D"/>
<path d="M143.879 -319.103L-81.9148 523.571" stroke="#201E1D"/>
<path d="M149.676 -317.55L-76.1179 525.124" stroke="#201E1D"/>
<path d="M155.469 -315.997L-70.325 526.677" stroke="#201E1D"/>
<path d="M161.266 -314.443L-64.5281 528.231" stroke="#201E1D"/>
<path d="M167.062 -312.891L-58.7312 529.783" stroke="#201E1D"/>
<path d="M172.855 -311.338L-52.9383 531.336" stroke="#201E1D"/>
<path d="M178.652 -309.785L-47.1414 532.889" stroke="#201E1D"/>
<path d="M184.449 -308.233L-41.3445 534.441" stroke="#201E1D"/>
<path d="M190.242 -306.68L-35.5515 535.993" stroke="#201E1D"/>
<path d="M196.039 -305.125L-29.7547 537.548" stroke="#201E1D"/>
<path d="M201.836 -303.573L-23.9578 539.101" stroke="#201E1D"/>
<path d="M207.629 -302.021L-18.1648 540.653" stroke="#201E1D"/>
<path d="M213.426 -300.468L-12.3679 542.206" stroke="#201E1D"/>
<path d="M219.223 -298.914L-6.57107 543.76" stroke="#201E1D"/>
<path d="M225.016 -297.361L-0.778103 545.313" stroke="#201E1D"/>
<path d="M230.812 -295.809L5.01877 546.865" stroke="#201E1D"/>
<path d="M236.609 -294.256L10.8156 548.418" stroke="#201E1D"/>
<path d="M242.402 -292.703L16.6086 549.971" stroke="#201E1D"/>
<path d="M248.199 -291.151L22.4055 551.523" stroke="#201E1D"/>
<path d="M253.996 -289.596L28.2024 553.077" stroke="#201E1D"/>
<path d="M259.789 -288.043L33.9953 554.63" stroke="#201E1D"/>
<path d="M265.586 -286.491L39.7922 556.182" stroke="#201E1D"/>
<path d="M271.383 -284.938L45.5891 557.735" stroke="#201E1D"/>
<path d="M277.176 -283.386L51.3821 559.288" stroke="#201E1D"/>
<path d="M282.973 -281.833L57.1789 560.84" stroke="#201E1D"/>
<path d="M288.77 -280.279L62.9758 562.395" stroke="#201E1D"/>
<path d="M294.562 -278.727L68.7688 563.947" stroke="#201E1D"/>
<path d="M300.359 -277.174L74.5656 565.5" stroke="#201E1D"/>
<path d="M306.156 -275.621L80.3625 567.053" stroke="#201E1D"/>
<path d="M311.949 -274.069L86.1555 568.605" stroke="#201E1D"/>
<path d="M317.746 -272.514L91.9524 570.159" stroke="#201E1D"/>
<path d="M323.543 -270.961L97.7492 571.712" stroke="#201E1D"/>
<path d="M329.336 -269.409L103.542 573.264" stroke="#201E1D"/>
<path d="M335.133 -267.856L109.339 574.817" stroke="#201E1D"/>
<path d="M340.93 -266.304L115.136 576.37" stroke="#201E1D"/>
<path d="M346.723 -264.751L120.929 577.922" stroke="#201E1D"/>
<path d="M352.52 -263.197L126.726 579.477" stroke="#201E1D"/>
<path d="M358.316 -261.645L132.523 581.029" stroke="#201E1D"/>
<path d="M364.109 -260.092L138.316 582.582" stroke="#201E1D"/>
<path d="M369.906 -258.539L144.113 584.135" stroke="#201E1D"/>
<path d="M375.703 -256.987L149.909 585.687" stroke="#201E1D"/>
<path d="M381.496 -255.432L155.702 587.242" stroke="#201E1D"/>
<path d="M387.293 -253.879L161.499 588.794" stroke="#201E1D"/>
<path d="M393.09 -252.327L167.296 590.347" stroke="#201E1D"/>
<path d="M398.883 -250.774L173.089 591.899" stroke="#201E1D"/>
<path d="M404.68 -249.222L178.886 593.452" stroke="#201E1D"/>
<path d="M410.477 -247.669L184.683 595.004" stroke="#201E1D"/>
<path d="M416.27 -246.115L190.476 596.559" stroke="#201E1D"/>
<path d="M422.066 -244.562L196.273 598.111" stroke="#201E1D"/>
<path d="M427.863 -243.01L202.07 599.664" stroke="#201E1D"/>
<path d="M433.656 -241.457L207.863 601.217" stroke="#201E1D"/>
<path d="M439.453 -239.903L213.659 602.771" stroke="#201E1D"/>
<path d="M445.25 -238.35L219.456 604.324" stroke="#201E1D"/>
<path d="M451.043 -236.797L225.249 605.876" stroke="#201E1D"/>
<path d="M456.84 -235.245L231.046 607.429" stroke="#201E1D"/>
<path d="M462.637 -233.692L236.843 608.981" stroke="#201E1D"/>
<path d="M468.43 -232.14L242.636 610.534" stroke="#201E1D"/>
<path d="M474.227 -230.585L248.433 612.088" stroke="#201E1D"/>
<path d="M480.023 -229.033L254.23 613.64" stroke="#201E1D"/>
<path d="M485.816 -227.48L260.023 615.193" stroke="#201E1D"/>
<path d="M491.613 -225.928L265.82 616.746" stroke="#201E1D"/>
<path d="M497.41 -224.375L271.616 618.298" stroke="#201E1D"/>
<path d="M503.203 -222.821L277.409 619.853" stroke="#201E1D"/>
<path d="M509 -221.268L283.206 621.406" stroke="#201E1D"/>
<path d="M514.793 -219.715L288.999 622.958" stroke="#201E1D"/>
<path d="M520.59 -218.163L294.796 624.511" stroke="#201E1D"/>
<path d="M526.387 -216.61L300.593 626.063" stroke="#201E1D"/>
<path d="M532.18 -215.058L306.386 627.616" stroke="#201E1D"/>
<path d="M537.977 -213.503L312.183 629.17" stroke="#201E1D"/>
<path d="M543.773 -211.951L317.98 630.722" stroke="#201E1D"/>
<path d="M549.566 -210.398L323.773 632.275" stroke="#201E1D"/>
<path d="M555.363 -208.846L329.57 633.828" stroke="#201E1D"/>
<path d="M561.16 -207.293L335.366 635.38" stroke="#201E1D"/>
<path d="M566.953 -205.739L341.159 636.935" stroke="#201E1D"/>
<path d="M572.75 -204.186L346.956 638.488" stroke="#201E1D"/>
<path d="M578.547 -202.634L352.753 640.04" stroke="#201E1D"/>
<path d="M584.34 -201.081L358.546 641.593" stroke="#201E1D"/>
<path d="M590.137 -199.528L364.343 643.145" stroke="#201E1D"/>
<path d="M595.934 -197.976L370.14 644.698" stroke="#201E1D"/>
<path d="M601.727 -196.421L375.933 646.252" stroke="#201E1D"/>
<path d="M607.523 -194.869L381.73 647.805" stroke="#201E1D"/>
<path d="M613.32 -193.316L387.527 649.357" stroke="#201E1D"/>
<path d="M619.113 -191.764L393.32 650.91" stroke="#201E1D"/>
<path d="M624.91 -190.211L399.116 652.462" stroke="#201E1D"/>
<path d="M630.707 -188.657L404.913 654.017" stroke="#201E1D"/>
<path d="M636.5 -187.104L410.706 655.57" stroke="#201E1D"/>
<path d="M642.297 -185.552L416.503 657.122" stroke="#201E1D"/>
<path d="M648.094 -183.999L422.3 658.675" stroke="#201E1D"/>
<path d="M653.887 -182.446L428.093 660.227" stroke="#201E1D"/>
<path d="M659.684 -180.894L433.89 661.78" stroke="#201E1D"/>
<path d="M665.48 -179.339L439.687 663.334" stroke="#201E1D"/>
<path d="M671.273 -177.787L445.48 664.887" stroke="#201E1D"/>
<path d="M677.07 -176.234L451.277 666.439" stroke="#201E1D"/>
<path d="M677.07 -176.234L451.277 666.439" stroke="#201E1D"/>
<path d="M682.867 -174.682L457.073 667.992" stroke="#201E1D"/>
<path d="M688.66 -173.127L462.866 669.546" stroke="#201E1D"/>
<path d="M694.457 -171.575L468.663 671.099" stroke="#201E1D"/>
<path d="M700.254 -170.022L474.46 672.651" stroke="#201E1D"/>
<path d="M706.047 -168.469L480.253 674.204" stroke="#201E1D"/>
<path d="M711.844 -166.917L486.05 675.757" stroke="#201E1D"/>
<path d="M717.641 -165.365L491.847 677.309" stroke="#201E1D"/>
<path d="M723.434 -163.81L497.64 678.864" stroke="#201E1D"/>
<path d="M729.23 -162.257L503.437 680.416" stroke="#201E1D"/>
<path d="M735.023 -160.705L509.23 681.969" stroke="#201E1D"/>
<path d="M740.82 -159.152L515.027 683.521" stroke="#201E1D"/>
<path d="M746.617 -157.598L520.823 685.076" stroke="#201E1D"/>
<path d="M752.41 -156.045L526.616 686.628" stroke="#201E1D"/>
<path d="M758.207 -154.493L532.413 688.181" stroke="#201E1D"/>
<path d="M764.004 -152.94L538.21 689.733" stroke="#201E1D"/>
<path d="M769.797 -151.388L544.003 691.286" stroke="#201E1D"/>
<path d="M775.594 -149.835L549.8 692.839" stroke="#201E1D"/>
<path d="M781.391 -148.281L555.597 694.393" stroke="#201E1D"/>
<path d="M787.184 -146.728L561.39 695.946" stroke="#201E1D"/>
<path d="M792.98 -145.176L567.187 697.498" stroke="#201E1D"/>
<path d="M798.777 -143.623L572.984 699.051" stroke="#201E1D"/>
<path d="M804.57 -142.07L578.777 700.603" stroke="#201E1D"/>
<path d="M810.367 -140.516L584.573 702.158" stroke="#201E1D"/>
<path d="M816.164 -138.963L590.37 703.71" stroke="#201E1D"/>
<path d="M821.957 -137.411L596.163 705.263" stroke="#201E1D"/>
<path d="M827.754 -135.858L601.96 706.815" stroke="#201E1D"/>
<path d="M833.551 -134.306L607.757 708.368" stroke="#201E1D"/>
<path d="M839.344 -132.753L613.55 709.921" stroke="#201E1D"/>
<path d="M845.141 -131.199L619.347 711.475" stroke="#201E1D"/>
<path d="M850.938 -129.646L625.144 713.028" stroke="#201E1D"/>
<path d="M856.73 -128.093L630.937 714.58" stroke="#201E1D"/>
<path d="M862.527 -126.541L636.734 716.133" stroke="#201E1D"/>
<path d="M868.324 -124.988L642.53 717.685" stroke="#201E1D"/>
<path d="M874.117 -123.434L648.323 719.24" stroke="#201E1D"/>
<path d="M879.914 -121.881L654.12 720.792" stroke="#201E1D"/>
<path d="M885.711 -120.329L659.917 722.345" stroke="#201E1D"/>
<path d="M891.504 -118.776L665.71 723.897" stroke="#201E1D"/>
<path d="M897.301 -117.224L671.507 725.45" stroke="#201E1D"/>
<path d="M903.098 -115.671L677.304 727.003" stroke="#201E1D"/>
<path d="M908.891 -114.117L683.097 728.557" stroke="#201E1D"/>
<path d="M914.688 -112.564L688.894 730.109" stroke="#201E1D"/>
<path d="M920.484 -111.011L694.691 731.662" stroke="#201E1D"/>
<path d="M926.277 -109.459L700.484 733.215" stroke="#201E1D"/>
<path d="M932.074 -107.906L706.28 734.767" stroke="#201E1D"/>
<path d="M937.871 -106.352L712.077 736.322" stroke="#201E1D"/>
<path d="M943.664 -104.799L717.87 737.874" stroke="#201E1D"/>
<path d="M949.461 -103.247L723.667 739.427" stroke="#201E1D"/>
<path d="M955.258 -101.694L729.464 740.98" stroke="#201E1D"/>
<path d="M961.055 -100.142L735.261 742.532" stroke="#201E1D"/>
<path d="M966.848 -98.5869L741.054 744.087" stroke="#201E1D"/>
<path d="M972.645 -97.0344L746.851 745.639" stroke="#201E1D"/>
<path d="M978.438 -95.4819L752.644 747.192" stroke="#201E1D"/>
<path d="M984.234 -93.9292L758.441 748.744" stroke="#201E1D"/>
<path d="M990.031 -92.3767L764.238 750.297" stroke="#201E1D"/>
<path d="M995.828 -90.8242L770.034 751.849" stroke="#201E1D"/>
<path d="M1001.62 -89.2695L775.827 753.404" stroke="#201E1D"/>
<path d="M1007.42 -87.7173L781.624 754.956" stroke="#201E1D"/>
<path d="M1013.21 -86.165L787.421 756.509" stroke="#201E1D"/>
<path d="M1019.01 -84.6118L793.214 758.062" stroke="#201E1D"/>
<path d="M1024.8 -83.0596L799.011 759.614" stroke="#201E1D"/>
<path d="M1030.6 -81.5068L804.808 761.167" stroke="#201E1D"/>
<path d="M1036.39 -79.9526L810.601 762.721" stroke="#201E1D"/>
<path d="M1042.19 -78.3999L816.398 764.274" stroke="#201E1D"/>
<path d="M1047.98 -76.8472L822.191 765.826" stroke="#201E1D"/>
<path d="M1053.78 -75.2949L827.988 767.379" stroke="#201E1D"/>
<path d="M1059.58 -73.7422L833.784 768.931" stroke="#201E1D"/>
<path d="M1065.37 -72.1877L839.577 770.486" stroke="#201E1D"/>
<path d="M1071.17 -70.6353L845.374 772.038" stroke="#201E1D"/>
<path d="M1076.96 -69.0828L851.171 773.591" stroke="#201E1D"/>
<path d="M1082.76 -67.53L856.964 775.144" stroke="#201E1D"/>
<path d="M1088.55 -65.9775L862.761 776.696" stroke="#201E1D"/>
<path d="M1094.35 -64.425L868.558 778.249" stroke="#201E1D"/>
<path d="M1100.14 -62.8704L874.351 779.803" stroke="#201E1D"/>
<path d="M1105.94 -61.3179L880.148 781.356" stroke="#201E1D"/>
<path d="M1111.74 -59.7654L885.945 782.908" stroke="#201E1D"/>
<path d="M1117.53 -58.2126L891.738 784.461" stroke="#201E1D"/>
<path d="M1123.33 -56.6602L897.534 786.014" stroke="#201E1D"/>
<path d="M1129.12 -55.106L903.331 787.568" stroke="#201E1D"/>
<path d="M1134.92 -53.5532L909.124 789.12" stroke="#201E1D"/>
<path d="M1140.71 -52.0005L914.921 790.673" stroke="#201E1D"/>
<path d="M1146.51 -50.4482L920.718 792.225" stroke="#201E1D"/>
<path d="M1152.3 -48.8955L926.511 793.778" stroke="#201E1D"/>
<path d="M1158.1 -47.3433L932.308 795.33" stroke="#201E1D"/>
<path d="M1163.9 -45.7886L938.105 796.885" stroke="#201E1D"/>
<path d="M1169.69 -44.2358L943.898 798.438" stroke="#201E1D"/>
<path d="M1175.49 -42.6836L949.695 799.99" stroke="#201E1D"/>
<path d="M1181.29 -41.1309L955.491 801.543" stroke="#201E1D"/>
<path d="M1187.08 -39.5767L961.284 803.097" stroke="#201E1D"/>
<path d="M1192.88 -38.0239L967.081 804.65" stroke="#201E1D"/>
<path d="M1198.67 -36.4712L972.878 806.202" stroke="#201E1D"/>
<path d="M1204.46 -34.9189L978.671 807.755" stroke="#201E1D"/>
<path d="M1210.26 -33.3662L984.468 809.307" stroke="#201E1D"/>
<path d="M1216.06 -31.8135L990.265 810.86" stroke="#201E1D"/>
<path d="M1221.85 -30.2593L996.058 812.414" stroke="#201E1D"/>
<path d="M1227.65 -28.7065L1001.85 813.967" stroke="#201E1D"/>
<path d="M1233.45 -27.1538L1007.65 815.52" stroke="#201E1D"/>
<path d="M1239.24 -25.6016L1013.44 817.072" stroke="#201E1D"/>
<path d="M1245.04 -24.0488L1019.24 818.625" stroke="#201E1D"/>
<path d="M1250.83 -22.4946L1025.04 820.179" stroke="#201E1D"/>
<path d="M1256.62 -20.9419L1030.83 821.732" stroke="#201E1D"/>
<path d="M1262.42 -19.3892L1036.63 823.284" stroke="#201E1D"/>
<path d="M1268.22 -17.8369L1042.43 824.837" stroke="#201E1D"/>
<path d="M1274.01 -16.2842L1048.22 826.389" stroke="#201E1D"/>
<path d="M1279.81 -14.7314L1054.01 827.942" stroke="#201E1D"/>
<path d="M1285.61 -13.1772L1059.81 829.496" stroke="#201E1D"/>
<path d="M1291.4 -11.6245L1065.6 831.049" stroke="#201E1D"/>
<path d="M1297.2 -10.0718L1071.4 832.602" stroke="#201E1D"/>
</g>
</svg>
