<svg width="28" height="28" viewBox="0 0 28 28" fill="none" xmlns="http://www.w3.org/2000/svg">
<path d="M3.75594 19.8691L9.00594 25.1191C9.17012 25.2833 9.39281 25.3755 9.625 25.3755C9.85719 25.3755 10.0799 25.2833 10.2441 25.1191C10.4082 24.9549 10.5005 24.7322 10.5005 24.5C10.5005 24.2678 10.4082 24.0451 10.2441 23.8809L6.48703 20.125H20.125C20.3571 20.125 20.5796 20.0328 20.7437 19.8687C20.9078 19.7046 21 19.4821 21 19.25V3.5C21 3.26794 20.9078 3.04538 20.7437 2.88128C20.5796 2.71719 20.3571 2.625 20.125 2.625C19.8929 2.625 19.6704 2.71719 19.5063 2.88128C19.3422 3.04538 19.25 3.26794 19.25 3.5V18.375H6.48703L10.2441 14.6191C10.4082 14.4549 10.5005 14.2322 10.5005 14C10.5005 13.7678 10.4082 13.5451 10.2441 13.3809C10.0799 13.2168 9.85719 13.1245 9.625 13.1245C9.39281 13.1245 9.17012 13.2168 9.00594 13.3809L3.75594 18.6309C3.67459 18.7122 3.61005 18.8087 3.56601 18.9149C3.52198 19.0212 3.49931 19.135 3.49931 19.25C3.49931 19.365 3.52198 19.4789 3.56601 19.5851C3.61005 19.6913 3.67459 19.7878 3.75594 19.8691Z" fill="white"/>
</svg>
