<svg width="81" height="44" viewBox="0 0 81 44" fill="none" xmlns="http://www.w3.org/2000/svg">
<path d="M66.8598 30.1854C66.9893 30.2259 67.1188 30.2542 67.2483 30.2704C67.3778 30.2785 67.5073 30.2825 67.6368 30.2825C67.9605 30.2825 68.2721 30.238 68.5716 30.149C68.8711 30.06 69.1503 29.9345 69.4093 29.7726C69.6764 29.6027 69.9111 29.4003 70.1134 29.1656C70.3238 28.9228 70.4938 28.6557 70.6233 28.3644L73.0513 30.8046C72.7438 31.2416 72.3877 31.6341 71.983 31.9822C71.5864 32.3302 71.1534 32.6256 70.684 32.8684C70.2227 33.1112 69.733 33.2933 69.215 33.4147C68.7051 33.5442 68.1791 33.609 67.6368 33.609C66.7222 33.609 65.8603 33.439 65.0509 33.0991C64.2497 32.7591 63.5455 32.2857 62.9385 31.6787C62.3396 31.0716 61.8661 30.3513 61.5181 29.5177C61.1701 28.676 60.9961 27.7533 60.9961 26.7497C60.9961 25.7219 61.1701 24.783 61.5181 23.9332C61.8661 23.0834 62.3396 22.359 62.9385 21.7601C63.5455 21.1612 64.2497 20.6958 65.0509 20.364C65.8603 20.0321 66.7222 19.8662 67.6368 19.8662C68.1791 19.8662 68.7092 19.931 69.2272 20.0605C69.7452 20.19 70.2348 20.3761 70.6961 20.6189C71.1656 20.8617 71.6026 21.1612 72.0073 21.5173C72.412 21.8653 72.7681 22.2578 73.0756 22.6949L66.8598 30.1854ZM68.5595 23.3505C68.4057 23.2938 68.2519 23.2574 68.0981 23.2412C67.9524 23.225 67.7987 23.2169 67.6368 23.2169C67.1836 23.2169 66.7546 23.3019 66.3499 23.4719C65.9534 23.6337 65.6053 23.8684 65.3059 24.176C65.0145 24.4835 64.7838 24.8558 64.6139 25.2929C64.4439 25.7219 64.3589 26.2075 64.3589 26.7497C64.3589 26.8711 64.363 27.0087 64.3711 27.1625C64.3873 27.3163 64.4075 27.4741 64.4318 27.636C64.4642 27.7897 64.5006 27.9395 64.541 28.0851C64.5815 28.2308 64.6341 28.3603 64.6989 28.4736L68.5595 23.3505Z" fill="#A8A5A4"/>
<path d="M59.6472 33.3656H56.3086V14.501H59.6472V33.3656Z" fill="#A8A5A4"/>
<path d="M54.2668 33.3662H53.4655L52.1786 31.5815C51.863 31.8648 51.5271 32.1319 51.171 32.3828C50.823 32.6256 50.4547 32.8401 50.0662 33.0262C49.6778 33.2043 49.2771 33.3459 48.8644 33.4511C48.4597 33.5563 48.0469 33.609 47.6261 33.609C46.7115 33.609 45.8495 33.4552 45.0402 33.1476C44.2389 32.8401 43.5348 32.3949 42.9278 31.8122C42.3289 31.2214 41.8554 30.5011 41.5074 29.6512C41.1594 28.8014 40.9854 27.8343 40.9854 26.7497C40.9854 25.738 41.1594 24.8113 41.5074 23.9696C41.8554 23.1198 42.3289 22.3914 42.9278 21.7844C43.5348 21.1774 44.2389 20.7079 45.0402 20.3761C45.8495 20.0362 46.7115 19.8662 47.6261 19.8662C48.0469 19.8662 48.4637 19.9188 48.8765 20.024C49.2893 20.1292 49.6899 20.2749 50.0784 20.4611C50.4669 20.6472 50.8351 20.8658 51.1831 21.1167C51.5393 21.3676 51.8711 21.6387 52.1786 21.9301L53.4655 20.3882H54.2668V33.3662ZM50.9282 26.7497C50.9282 26.2965 50.8392 25.8594 50.6611 25.4386C50.4912 25.0096 50.2564 24.6333 49.957 24.3095C49.6575 23.9777 49.3055 23.7147 48.9008 23.5204C48.5042 23.3181 48.0793 23.2169 47.6261 23.2169C47.1728 23.2169 46.7439 23.2938 46.3392 23.4476C45.9426 23.6014 45.5946 23.828 45.2951 24.1274C45.0038 24.4269 44.7731 24.7992 44.6031 25.2443C44.4332 25.6814 44.3482 26.1832 44.3482 26.7497C44.3482 27.3163 44.4332 27.8221 44.6031 28.2673C44.7731 28.7043 45.0038 29.0726 45.2951 29.372C45.5946 29.6715 45.9426 29.8981 46.3392 30.0519C46.7439 30.2056 47.1728 30.2825 47.6261 30.2825C48.0793 30.2825 48.5042 30.1854 48.9008 29.9912C49.3055 29.7888 49.6575 29.5258 49.957 29.2021C50.2564 28.8702 50.4912 28.4939 50.6611 28.073C50.8392 27.6441 50.9282 27.203 50.9282 26.7497Z" fill="#A8A5A4"/>
<path d="M40.7426 22.9498L38.3146 25.39C38.1932 25.0501 38.0273 24.7466 37.8168 24.4795C37.6064 24.2043 37.3676 23.9737 37.1005 23.7875C36.8416 23.6014 36.5583 23.4597 36.2507 23.3626C35.9432 23.2655 35.6275 23.2169 35.3038 23.2169C34.8506 23.2169 34.4216 23.31 34.0169 23.4961C33.6203 23.6823 33.2723 23.9453 32.9729 24.2853C32.6815 24.6171 32.4508 25.0137 32.2809 25.475C32.1109 25.9363 32.0259 26.4462 32.0259 27.0047C32.0259 27.4579 32.1109 27.8828 32.2809 28.2794C32.4508 28.676 32.6815 29.024 32.9729 29.3235C33.2723 29.6229 33.6203 29.8576 34.0169 30.0276C34.4216 30.1976 34.8506 30.2825 35.3038 30.2825C35.6275 30.2825 35.9391 30.238 36.2386 30.149C36.5381 30.06 36.8173 29.9345 37.0763 29.7726C37.3434 29.6027 37.5781 29.4003 37.7804 29.1656C37.9908 28.9228 38.1608 28.6557 38.2903 28.3644L40.7183 30.8046C40.4108 31.2416 40.0547 31.6341 39.65 31.9822C39.2534 32.3302 38.8204 32.6256 38.351 32.8684C37.8897 33.1112 37.4 33.2933 36.882 33.4147C36.3721 33.5442 35.8461 33.609 35.3038 33.609C34.3892 33.609 33.5273 33.439 32.7179 33.0991C31.9167 32.751 31.2125 32.2776 30.6055 31.6787C30.0066 31.0797 29.5331 30.3797 29.1851 29.5784C28.8371 28.7771 28.6631 27.9192 28.6631 27.0047C28.6631 26.0092 28.8371 25.0784 29.1851 24.2124C29.5331 23.3464 30.0066 22.5937 30.6055 21.9543C31.2125 21.3069 31.9167 20.797 32.7179 20.4247C33.5273 20.0524 34.3892 19.8662 35.3038 19.8662C35.8461 19.8662 36.3762 19.935 36.8942 20.0726C37.4202 20.2102 37.918 20.4125 38.3874 20.6796C38.8649 20.9386 39.302 21.2583 39.6986 21.6387C40.1032 22.0191 40.4513 22.4561 40.7426 22.9498Z" fill="#A8A5A4"/>
<path d="M9.30762 17.1147C9.30762 16.1543 9.49107 15.2532 9.85797 14.4115C10.2249 13.5697 10.7213 12.8359 11.3472 12.21C11.9839 11.5734 12.7231 11.0716 13.5648 10.7047C14.4065 10.3377 15.3076 10.1543 16.268 10.1543H73.1922V14.8H16.268C15.9443 14.8 15.6421 14.8593 15.3615 14.978C15.081 15.0967 14.8328 15.264 14.6169 15.4798C14.4119 15.6848 14.25 15.9277 14.1313 16.2082C14.0126 16.4888 13.9533 16.791 13.9533 17.1147C13.9533 17.4384 14.0126 17.746 14.1313 18.0374C14.25 18.3179 14.4119 18.5661 14.6169 18.782C14.8328 18.987 15.081 19.1489 15.3615 19.2676C15.6421 19.3863 15.9443 19.4456 16.268 19.4456H20.9137C21.8741 19.4456 22.7752 19.6291 23.6169 19.996C24.4694 20.3521 25.2086 20.8485 25.8345 21.4852C26.4712 22.1111 26.9676 22.8503 27.3237 23.7028C27.6906 24.5445 27.8741 25.4456 27.8741 26.406C27.8741 27.3665 27.6906 28.2675 27.3237 29.1093C26.9676 29.951 26.4712 30.6902 25.8345 31.3269C25.2086 31.9528 24.4694 32.4492 23.6169 32.8161C22.7752 33.183 21.8741 33.3664 20.9137 33.3664H10.6026V28.7208H20.9137C21.2374 28.7208 21.5396 28.6614 21.8202 28.5427C22.1007 28.424 22.3435 28.2621 22.5486 28.0571C22.7644 27.8413 22.9317 27.5931 23.0504 27.3125C23.1691 27.0319 23.2284 26.7298 23.2284 26.406C23.2284 26.0823 23.1691 25.7801 23.0504 25.4996C22.9317 25.219 22.7644 24.9762 22.5486 24.7711C22.3435 24.5553 22.1007 24.388 21.8202 24.2693C21.5396 24.1506 21.2374 24.0913 20.9137 24.0913H16.268C15.3076 24.0913 14.4065 23.9078 13.5648 23.5409C12.7231 23.174 11.9839 22.6776 11.3472 22.0517C10.7213 21.415 10.2249 20.6758 9.85797 19.8341C9.49107 18.9816 9.30762 18.0751 9.30762 17.1147Z" fill="#A8A5A4"/>
</svg>
