<svg width="103" height="44" viewBox="0 0 103 44" fill="none" xmlns="http://www.w3.org/2000/svg">
<path d="M91.8153 33.6659C88.2153 33.6659 86.6153 31.9659 86.6153 28.6326V17.4992H85.5153C85.082 17.4992 84.8486 17.2992 84.8486 16.9659V14.1992C84.8486 13.8659 85.082 13.6659 85.5153 13.6659H86.6153V11.7326C86.6153 11.2992 86.8153 11.0992 87.1486 11.0659L90.582 10.6659C90.9153 10.6326 91.1153 10.8992 91.1153 11.3326V13.6659H92.7153C93.1486 13.6659 93.382 13.8659 93.382 14.1992V16.9659C93.382 17.2992 93.1486 17.4992 92.7153 17.4992H91.1153V28.8326C91.1153 29.6992 91.5486 30.1659 92.482 30.1659H92.8153C93.2486 30.1659 93.482 30.3992 93.482 30.8326V32.9992C93.482 33.4326 93.2486 33.6659 92.8153 33.6659H91.8153Z" fill="#A8A5A4"/>
<path d="M75.3562 34.0003C72.9895 34.0003 71.9229 32.667 71.9229 28.967V14.3337C71.9229 13.9003 72.1562 13.667 72.5895 13.667H75.7562C76.1895 13.667 76.4229 13.9003 76.4229 14.3337V28.4003C76.4229 29.6003 76.8229 30.0003 77.6895 30.0003C78.5562 30.0003 78.9562 29.6003 78.9562 28.4003V14.3337C78.9562 13.9003 79.1562 13.667 79.4895 13.667H83.2562C83.5895 13.667 83.7895 13.9003 83.7895 14.3337V33.0003C83.7895 33.4337 83.5895 33.667 83.2562 33.667H79.4895C79.1562 33.667 78.9562 33.4337 78.9562 33.0003V31.4003C78.2895 33.067 77.0562 34.0003 75.3562 34.0003Z" fill="#A8A5A4"/>
<path d="M64.732 33.9997C60.532 33.9997 59.0986 32.2997 59.0986 27.9663V19.3663C59.0986 15.633 60.5986 13.333 64.832 13.333C68.832 13.333 70.3653 15.033 70.3653 19.3663V20.8997C70.3653 21.233 70.1986 21.433 69.8986 21.433H66.4653C66.1986 21.433 66.032 21.233 66.032 20.8997V18.5997C66.032 17.4997 65.6653 17.0663 64.832 17.0663C63.9653 17.0663 63.5986 17.4997 63.5986 18.5997V28.733C63.5986 29.833 63.9653 30.2663 64.832 30.2663C65.6653 30.2663 66.032 29.833 66.032 28.733V26.3997C66.032 26.033 66.1986 25.833 66.4653 25.833H69.8986C70.1986 25.833 70.3653 26.033 70.3653 26.3997V27.9663C70.3653 32.2997 68.732 33.9997 64.732 33.9997Z" fill="#A8A5A4"/>
<path d="M50.174 33.6663C49.8406 33.6663 49.6406 33.433 49.6406 32.9997V14.333C49.6406 13.8997 49.8406 13.6663 50.174 13.6663H53.9406C54.274 13.6663 54.474 13.8997 54.474 14.333V16.933C54.974 14.733 56.0073 13.333 57.5073 13.333C58.0406 13.333 58.474 13.3997 58.474 14.0997V17.733C58.474 18.1663 58.2406 18.3997 57.8073 18.3997H55.8406C54.874 18.3997 54.474 18.933 54.474 20.133V32.9997C54.474 33.433 54.274 33.6663 53.9406 33.6663H50.174Z" fill="#A8A5A4"/>
<path d="M42.2591 33.9997C37.8924 33.9997 36.4258 32.0663 36.4258 27.9663V19.633C36.4258 15.8997 37.9258 13.333 42.3258 13.333C46.4924 13.333 48.0258 15.5997 48.0258 19.633V23.0997C48.0258 23.9663 47.5591 24.433 46.6924 24.433H40.9258V28.8997C40.9258 29.9997 41.2924 30.5997 42.3258 30.5997C43.3258 30.5997 43.6924 29.9997 43.6924 28.8997V27.2663C43.6924 26.8997 43.8591 26.6997 44.1258 26.6997H47.5591C47.8591 26.6997 48.0258 26.8997 48.0258 27.2663V28.0997C48.0258 32.1997 46.4258 33.9997 42.2591 33.9997ZM40.9258 20.9663H43.6924V18.433C43.6924 17.333 43.3258 16.733 42.3258 16.733C41.2924 16.733 40.9258 17.333 40.9258 18.433V20.9663Z" fill="#A8A5A4"/>
<path d="M26.3524 33.667C26.0524 33.667 25.8857 33.467 25.819 33.1003L22.3857 14.2337C22.319 13.867 22.4857 13.667 22.7857 13.667H26.0857C26.3524 13.667 26.519 13.867 26.5857 14.2337L28.8857 29.5003L31.1524 14.2337C31.219 13.867 31.3857 13.667 31.719 13.667H35.319C35.619 13.667 35.7857 13.867 35.719 14.2337L32.2857 33.1003C32.219 33.467 32.0524 33.667 31.7524 33.667H26.3524Z" fill="#A8A5A4"/>
<path d="M15.3 34C10.7333 34 9 32 9 27V17C9 12.6667 10.7333 10 15.3 10C19.8667 10 21.6 12 21.6 17V27C21.6 32 19.8667 34 15.3 34ZM15.3 29.6667C16.3333 29.6667 16.7667 29.2 16.7667 27.9V16.2C16.7667 14.9 16.3333 14.3333 15.3 14.3333C14.2667 14.3333 13.8333 14.9 13.8333 16.2V27.9C13.8333 29.2 14.2667 29.6667 15.3 29.6667Z" fill="#A8A5A4"/>
</svg>
